<svg width="12" height="24" viewBox="0 0 12 24" fill="none" xmlns="http://www.w3.org/2000/svg">
<path d="M0.218262 0.79674C0.218262 0.79674 3.24052 0.913559 3.24052 2.62412V4.11356C3.98979 2.96512 4.96054 1.97287 6.09769 1.19309C7.01809 0.566578 8.1073 0.225184 9.22577 0.212646C10.1549 0.242143 11.0604 0.508036 11.8544 0.984485C11.8544 0.984485 11.7147 3.04967 8.74323 3.04967C7.674 3.08404 6.65642 3.51112 5.89029 4.24707C4.97035 5.04811 4.27757 6.28861 3.81195 7.96858C3.44228 9.26193 3.25886 11.8751 3.26168 15.808V23.4804C3.26168 23.4804 0.218262 23.5847 0.218262 21.1441V0.79674Z" fill="white"/>
</svg>
