<svg width="40" height="40" viewBox="0 0 40 40" fill="none" xmlns="http://www.w3.org/2000/svg">
<circle cx="20" cy="20" r="20" fill="#ACDCF1"/>
<mask id="mask0" style="mask-type:alpha" maskUnits="userSpaceOnUse" x="0" y="0" width="40" height="40">
<circle cx="20" cy="20" r="20" fill="#C4C4C4"/>
</mask>
<g mask="url(#mask0)">
<path d="M14.9869 51.7277C14.7351 49.9276 8.75879 32.1978 8.75879 32.1978C8.75879 32.1978 14.2604 29.1396 15.4615 28.5396C16.7691 28.7622 18.0864 28.9267 19.4134 28.888C20.9147 28.8396 22.7648 28.9944 24.053 28.1041C25.6803 28.9364 29.5644 30.9397 30.1455 31.2397C30.8817 31.6268 30.223 31.3365 30.1068 34.2592C30.0293 36.1754 31.3078 38.4884 31.3563 41.2756C31.4047 44.0628 29.3319 47.7114 29.3319 47.7114C30.1552 54.0697 30.9398 59.4699 30.9398 60.128C30.9301 61.9281 22.8713 62.0829 22.5033 62.0732C17.6602 61.9668 13.5534 61.1732 13.5534 60.399C13.5631 60.399 15.2387 53.5374 14.9869 51.7277Z" fill="#E5E6E8"/>
<path d="M22.2418 35.6818C21.7866 35.7205 13.4469 30.6493 12.6333 30.059C13.8441 29.3912 14.987 28.7719 15.4616 28.5396C16.7692 28.7622 18.0865 28.9267 19.4135 28.888C20.9149 28.8396 22.7649 28.9944 24.0531 28.1041C24.3921 28.2783 24.8377 28.5106 25.3317 28.7622C25.6319 33.2527 22.2418 35.6818 22.2418 35.6818Z" fill="#C3C0E0"/>
<path d="M30.2327 47.7114L32.1215 58.8989C32.1893 59.7312 25.9224 60.9022 25.0991 60.0119C25.1088 58.9957 25.2832 37.84 23.2007 28.5202C23.5009 28.4138 23.7915 28.2783 24.0531 28.0944C25.6803 28.9267 29.5644 30.93 30.1456 31.23C30.8817 31.6171 30.223 31.3268 30.1068 34.2495C30.0293 36.1657 31.3079 38.4787 31.3563 41.2659C31.4144 44.0628 30.2327 47.7114 30.2327 47.7114Z" fill="#0095D6"/>
<path d="M28.5959 35.1979L26.3875 36.7077L29.0414 38.1981C29.0414 38.1981 25.6707 44.2757 24.8764 45.6209C24.6343 39.4852 24.1597 32.7688 23.2104 28.5202C23.5107 28.4138 23.8013 28.2783 24.0628 28.0944C24.7699 28.4525 25.8935 29.0332 26.9977 29.6041C27.3851 30.8236 28.5959 35.1979 28.5959 35.1979Z" fill="#65BCE2"/>
<path d="M8.75879 32.1978C8.75879 32.1978 14.2605 29.1396 15.4615 28.5396C15.9942 28.6267 16.5367 28.7138 17.0791 28.7719C17.2825 29.9332 17.7474 31.0268 18.1155 32.1397C18.5998 33.5914 20.4304 44.4596 20.8857 47.4888C20.8566 50.034 20.9922 57.4763 20.876 60.0215C18.4061 60.8732 10.6573 59.3925 10.6573 58.6183L12.546 51.3889L8.75879 32.1978Z" fill="#0095D6"/>
<path d="M14.0571 38.0142L16.0912 36.456L13.166 35.7883L14.5608 29.0138C14.9482 28.8009 15.2679 28.6364 15.4616 28.5396C15.9943 28.6267 16.5368 28.7138 17.0792 28.7719C17.2826 29.9332 17.7475 31.0268 18.1156 32.1397C18.5418 33.3882 19.9559 41.6821 20.6339 45.8629C19.8881 45.1758 14.0571 38.0142 14.0571 38.0142Z" fill="#65BCE2"/>
<path d="M20.8276 34.0656C20.169 33.4656 19.4328 33.0011 18.8711 32.3043C17.9218 31.1332 16.7498 29.6332 16.0234 28.2202C17.6022 26.8266 15.9556 21.8812 15.9556 21.8812L21.7091 22.0845L23.3557 27.7363C23.3557 27.7363 23.685 27.9008 24.1887 28.1621C23.9078 30.5913 23.3751 33.485 22.2321 35.5657C22.1934 35.5367 21.2054 34.4043 20.8276 34.0656Z" fill="#FFC9B1"/>
<path d="M16.0235 28.2202C16.2656 28.6848 16.5659 29.1686 16.8758 29.6429C19.5492 31.1623 21.8641 31.3849 23.8982 30.0977C24.0144 29.4396 24.1016 28.7815 24.1694 28.1621C23.6657 27.9008 23.3364 27.7363 23.3364 27.7363L21.6898 22.0845L15.9363 21.8812C15.946 21.8812 17.6023 26.8266 16.0235 28.2202Z" fill="#E4B099"/>
<path d="M24.1383 32.5808C23.7308 33.0161 23.3168 33.4635 22.9526 33.8669L23.8116 27.9338L23.8244 27.8458L23.8208 27.8291C23.9779 27.9435 24.1494 28.0773 24.331 28.2325C24.9038 28.7222 25.5773 29.4252 26.2105 30.401L26.1941 30.418L26.0622 30.5549C25.9485 30.6731 25.7859 30.8424 25.59 31.0473C25.1982 31.4572 24.6726 32.0099 24.1383 32.5808Z" fill="#E5E6E8" stroke="#E1E1E1"/>
<mask id="path-12-inside-1" fill="white">
<path d="M16.5562 26.904C16.5562 26.904 15.2873 28.1525 15.1323 28.6267C14.9289 29.2364 15.0742 33.2333 15.0742 33.2333L17.1954 31.6074L18.9874 32.7688L22.1837 35.5657C22.2031 35.556 17.0598 29.0041 16.5562 26.904Z"/>
</mask>
<path d="M16.5562 26.904C16.5562 26.904 15.2873 28.1525 15.1323 28.6267C14.9289 29.2364 15.0742 33.2333 15.0742 33.2333L17.1954 31.6074L18.9874 32.7688L22.1837 35.5657C22.2031 35.556 17.0598 29.0041 16.5562 26.904Z" fill="#E5E6E8"/>
<path d="M16.5562 26.904L17.5286 26.6708L17.116 24.9504L15.8548 26.1912L16.5562 26.904ZM15.1323 28.6267L16.0809 28.9432L16.0828 28.9373L15.1323 28.6267ZM15.0742 33.2333L14.0749 33.2696L14.1452 35.2053L15.6825 34.027L15.0742 33.2333ZM17.1954 31.6074L17.7393 30.7683L17.1472 30.3845L16.5871 30.8138L17.1954 31.6074ZM18.9874 32.7688L19.6459 32.0162L19.5917 31.9688L19.5312 31.9296L18.9874 32.7688ZM22.1837 35.5657L21.5252 36.3182L22.0303 36.7602L22.6307 36.4603L22.1837 35.5657ZM16.5562 26.904C15.8548 26.1912 15.8548 26.1912 15.8547 26.1913C15.8547 26.1913 15.8546 26.1914 15.8546 26.1914C15.8545 26.1915 15.8544 26.1916 15.8542 26.1918C15.854 26.1921 15.8536 26.1924 15.8532 26.1928C15.8523 26.1937 15.8512 26.1948 15.8497 26.1962C15.8468 26.1991 15.8427 26.2032 15.8375 26.2083C15.8271 26.2186 15.8123 26.2334 15.7936 26.2521C15.7562 26.2896 15.7033 26.343 15.6396 26.4083C15.5127 26.5384 15.3403 26.7185 15.1614 26.916C14.9845 27.1112 14.7909 27.3346 14.6263 27.5493C14.4889 27.7287 14.2795 28.017 14.1818 28.316L16.0828 28.9373C16.0626 28.9992 16.07 28.9536 16.214 28.7656C16.331 28.6129 16.4837 28.4352 16.6433 28.2591C16.801 28.0851 16.9555 27.9235 17.0714 27.8047C17.129 27.7456 17.1765 27.6977 17.2091 27.665C17.2254 27.6487 17.238 27.6362 17.2463 27.628C17.2504 27.6239 17.2534 27.6209 17.2553 27.619C17.2563 27.618 17.257 27.6174 17.2573 27.617C17.2575 27.6169 17.2576 27.6167 17.2576 27.6167C17.2577 27.6167 17.2577 27.6167 17.2576 27.6167C17.2576 27.6167 17.2576 27.6168 17.2576 27.6168C17.2575 27.6168 17.2575 27.6168 16.5562 26.904ZM14.1837 28.3102C14.118 28.5071 14.0912 28.7399 14.0757 28.9076C14.0576 29.1031 14.0458 29.3312 14.038 29.5712C14.0223 30.0525 14.0215 30.6256 14.027 31.1688C14.0326 31.714 14.0445 32.2387 14.055 32.6264C14.0603 32.8205 14.0653 32.9808 14.0689 33.0927C14.0707 33.1487 14.0722 33.1927 14.0732 33.2227C14.0737 33.2378 14.0741 33.2494 14.0744 33.2573C14.0746 33.2612 14.0747 33.2642 14.0747 33.2663C14.0748 33.2673 14.0748 33.2681 14.0748 33.2687C14.0748 33.269 14.0748 33.2692 14.0748 33.2693C14.0748 33.2694 14.0749 33.2695 14.0749 33.2695C14.0749 33.2696 14.0749 33.2696 15.0742 33.2333C16.0735 33.197 16.0735 33.197 16.0735 33.197C16.0735 33.197 16.0735 33.197 16.0735 33.1969C16.0735 33.1968 16.0735 33.1967 16.0735 33.1965C16.0735 33.1961 16.0735 33.1954 16.0734 33.1945C16.0734 33.1928 16.0733 33.19 16.0732 33.1864C16.0729 33.1791 16.0725 33.1682 16.072 33.1538C16.071 33.1251 16.0696 33.0825 16.0678 33.028C16.0643 32.919 16.0595 32.7623 16.0543 32.5721C16.044 32.1914 16.0323 31.6787 16.0269 31.1485C16.0215 30.6162 16.0226 30.0757 16.0369 29.6362C16.0441 29.4157 16.0543 29.2315 16.0672 29.0917C16.0827 28.9241 16.0958 28.8987 16.0809 28.9431L14.1837 28.3102ZM15.6825 34.027L17.8038 32.4011L16.5871 30.8138L14.4659 32.4396L15.6825 34.027ZM16.6516 32.4466L18.4435 33.608L19.5312 31.9296L17.7393 30.7683L16.6516 32.4466ZM18.3288 33.5214L21.5252 36.3182L22.8423 34.8131L19.6459 32.0162L18.3288 33.5214ZM22.6307 36.4603C22.9156 36.2472 23.1667 35.7499 23.1836 35.544C23.1764 35.4442 23.1459 35.2927 23.1296 35.2406C23.1011 35.1576 23.0674 35.0969 23.0611 35.0852C23.0397 35.046 23.0198 35.0161 23.0155 35.0096C23.0016 34.9885 22.9883 34.97 22.9822 34.9615C22.9672 34.9406 22.9485 34.9155 22.9296 34.8903C22.8906 34.8383 22.8341 34.7637 22.7648 34.6723C22.6247 34.4878 22.4249 34.2248 22.1828 33.9027C21.6986 33.2584 21.0479 32.3811 20.3823 31.4409C19.715 30.4985 19.0406 29.5038 18.5053 28.6228C17.9462 27.7025 17.6132 27.0235 17.5286 26.6708L15.5837 27.1372C15.751 27.8346 16.2497 28.7621 16.7961 29.6613C17.3662 30.5996 18.0708 31.6373 18.7499 32.5966C19.4306 33.5581 20.0936 34.4518 20.584 35.1043C20.8293 35.4307 21.032 35.6975 21.1716 35.8814C21.242 35.9742 21.2945 36.0434 21.3289 36.0894C21.3468 36.1133 21.356 36.1257 21.3593 36.1304C21.3623 36.1346 21.3559 36.1258 21.3463 36.1114C21.3442 36.1081 21.3259 36.0808 21.3054 36.0433C21.2996 36.0325 21.2663 35.9725 21.2379 35.89C21.2217 35.8381 21.1912 35.6868 21.184 35.5871C21.2009 35.3813 21.452 34.8841 21.7368 34.6711L22.6307 36.4603Z" fill="#E1E1E1" mask="url(#path-12-inside-1)"/>
<path d="M8.78796 32.1591C6.7539 33.1753 8.25523 50.6728 10.4249 51.9018C12.4687 53.0632 17.5829 54.06 29.5645 50.1792L26.9105 47.4791C26.9105 47.4791 14.5027 47.7791 13.8441 47.3726C13.1854 46.9662 14.3477 43.1337 13.66 40.9175C12.2459 36.398 8.78796 32.1591 8.78796 32.1591Z" fill="#0095D6"/>
<path d="M30.2134 31.3945C32.5187 31.1526 39.5604 50.4792 34.4171 53.0438C32.3443 54.0794 29.4966 53.0922 22.2902 49.8308C15.7619 46.8791 13.166 47.5855 13.166 47.5855C13.2726 46.6661 13.4857 45.8145 14.1346 45.2435C14.5027 44.808 15.0064 44.4306 16.3818 44.3822C16.3818 44.3822 29.2739 46.3661 31.6179 47.6436C31.6082 47.6436 29.0511 31.5204 30.2134 31.3945Z" fill="#0095D6"/>
<path d="M27.73 18.1815C28.0683 17.0441 27.7605 15.9492 27.0425 15.7361C26.3246 15.523 25.4684 16.2723 25.1302 17.4098C24.792 18.5472 25.0998 19.642 25.8177 19.8552C26.5356 20.0683 27.3918 19.3189 27.73 18.1815Z" fill="#FFC9B1"/>
<path d="M14.2335 19.7571C14.9645 19.5945 15.3479 18.5237 15.0899 17.3655C14.8318 16.2073 14.03 15.4002 13.299 15.5628C12.568 15.7254 12.1845 16.7962 12.4426 17.9544C12.7007 19.1126 13.5025 19.9197 14.2335 19.7571Z" fill="#E4B099"/>
<path d="M20.1979 8.73875C26.0483 8.79682 26.3389 14.2841 26.3582 14.9519C26.3582 14.9906 26.3582 15.0293 26.3582 15.0681C26.3195 15.6778 25.9127 21.3199 25.3412 22.3942C24.8666 23.2845 21.3796 26.1588 19.9848 26.1588C18.59 26.1588 15.2387 23.1877 14.7834 22.2877C14.2313 21.2038 13.9504 15.5519 13.9214 14.9422C13.9214 14.9035 13.9214 14.8648 13.9214 14.8261C13.9311 14.1583 14.3476 8.68069 20.1979 8.73875Z" fill="#FFC9B1"/>
<g clip-path="url(#clip0)">
<path d="M21.0616 17.7369C20.9144 17.7013 21.5366 16.6729 22.4531 16.5065C23.5636 16.2984 23.8111 17.1782 23.8044 17.3565C23.7977 17.5289 21.7707 17.9153 21.0616 17.7369Z" fill="white"/>
<path d="M22.3526 17.7845C22.7517 17.7845 23.0751 17.4971 23.0751 17.1425C23.0751 16.7879 22.7517 16.5005 22.3526 16.5005C21.9536 16.5005 21.6301 16.7879 21.6301 17.1425C21.6301 17.4971 21.9536 17.7845 22.3526 17.7845Z" fill="url(#paint0_linear)"/>
<path d="M22.3528 17.7488C22.7296 17.7488 23.0351 17.4774 23.0351 17.1425C23.0351 16.8076 22.7296 16.5362 22.3528 16.5362C21.9759 16.5362 21.6704 16.8076 21.6704 17.1425C21.6704 17.4774 21.9759 17.7488 22.3528 17.7488Z" fill="#A78A7C"/>
<path d="M22.3527 17.5348C22.5965 17.5348 22.7942 17.3592 22.7942 17.1425C22.7942 16.9258 22.5965 16.7502 22.3527 16.7502C22.1088 16.7502 21.9111 16.9258 21.9111 17.1425C21.9111 17.3592 22.1088 17.5348 22.3527 17.5348Z" fill="black"/>
<path d="M21.095 17.5288C21.095 17.5288 21.5499 16.447 22.56 16.3162C23.5702 16.1854 23.7642 17.1543 23.7642 17.1543C23.7642 17.1543 23.5234 16.4589 22.5667 16.5064C21.6101 16.548 21.095 17.5288 21.095 17.5288Z" fill="#4E1B3D"/>
<path d="M21.0682 17.5824L21.2288 17.7607C21.2288 17.7607 21.0214 17.7785 21.0013 17.725C20.9812 17.6834 21.0682 17.5824 21.0682 17.5824Z" fill="#E4B099"/>
<path d="M21.3694 17.7785C21.3694 17.7785 22.1655 17.8855 22.8478 17.7666C23.5369 17.6478 23.7643 17.3981 23.7643 17.3981C23.7643 17.3981 22.6873 17.7607 21.3694 17.7785Z" fill="#E4B099"/>
<path d="M22.861 17.0177C22.8142 17.0533 23.0215 17.0593 23.1687 17.0058C23.3025 16.9582 23.3694 16.881 23.356 16.8691C23.3493 16.8572 23.0349 16.881 22.861 17.0177Z" fill="white"/>
<path d="M22.7472 17.0533C22.687 17.0355 22.6201 17.0652 22.6201 17.089C22.6201 17.1187 22.687 17.1484 22.7205 17.1366C22.7539 17.1306 22.7807 17.0652 22.7472 17.0533Z" fill="white"/>
<path d="M21.0681 17.5824C21.0681 17.5824 21.5498 16.6194 22.6268 16.554C23.5902 16.4946 23.7909 17.2436 23.7909 17.2436C23.7909 17.2436 23.8912 16.5897 23.2289 16.4351C22.6001 16.2865 21.5163 16.5837 21.0681 17.5824Z" fill="#4E1B3D"/>
<path d="M19.0902 17.7369C19.2374 17.6953 18.6152 16.6729 17.6921 16.5005C16.5815 16.2925 16.334 17.1722 16.3407 17.3505C16.3474 17.5289 18.3744 17.9153 19.0902 17.7369Z" fill="white"/>
<path d="M17.7923 17.7845C18.1914 17.7845 18.5148 17.4971 18.5148 17.1425C18.5148 16.7879 18.1914 16.5005 17.7923 16.5005C17.3933 16.5005 17.0698 16.7879 17.0698 17.1425C17.0698 17.4971 17.3933 17.7845 17.7923 17.7845Z" fill="url(#paint1_linear)"/>
<path d="M17.7925 17.7488C18.1693 17.7488 18.4748 17.4774 18.4748 17.1425C18.4748 16.8076 18.1693 16.5362 17.7925 16.5362C17.4156 16.5362 17.1101 16.8076 17.1101 17.1425C17.1101 17.4774 17.4156 17.7488 17.7925 17.7488Z" fill="#A78A7C"/>
<path d="M17.7924 17.5348C18.0362 17.5348 18.2339 17.3592 18.2339 17.1425C18.2339 16.9258 18.0362 16.7502 17.7924 16.7502C17.5485 16.7502 17.3508 16.9258 17.3508 17.1425C17.3508 17.3592 17.5485 17.5348 17.7924 17.5348Z" fill="black"/>
<path d="M19.0501 17.5288C19.0501 17.5288 18.5952 16.447 17.585 16.3162C16.5682 16.1854 16.3809 17.1543 16.3809 17.1543C16.3809 17.1543 16.615 16.4589 17.5783 16.5064C18.535 16.548 19.0501 17.5288 19.0501 17.5288Z" fill="#4E1B3D"/>
<path d="M19.0768 17.5824L18.9163 17.7607C18.9163 17.7607 19.1236 17.7785 19.1437 17.725C19.1638 17.6715 19.0768 17.5824 19.0768 17.5824Z" fill="#E4B099"/>
<path d="M18.7758 17.7785C18.7758 17.7785 17.9797 17.8855 17.2974 17.7666C16.6083 17.6478 16.3809 17.3981 16.3809 17.3981C16.3809 17.3981 17.4579 17.7607 18.7758 17.7785Z" fill="#E4B099"/>
<path d="M17.2841 17.0177C17.3309 17.0533 17.1235 17.0593 16.9763 17.0058C16.8426 16.9582 16.7757 16.881 16.789 16.8691C16.8024 16.8572 17.1101 16.881 17.2841 17.0177Z" fill="white"/>
<path d="M17.3977 17.0533C17.4579 17.0355 17.5248 17.0652 17.5248 17.089C17.5248 17.1187 17.4579 17.1484 17.4245 17.1366C17.391 17.1306 17.3642 17.0652 17.3977 17.0533Z" fill="white"/>
<path d="M19.0768 17.5824C19.0768 17.5824 18.5952 16.6194 17.5181 16.554C16.5548 16.4946 16.3541 17.2436 16.3541 17.2436C16.3541 17.2436 16.2537 16.5897 16.916 16.4351C17.5448 16.2865 18.6286 16.5837 19.0768 17.5824Z" fill="#4E1B3D"/>
</g>
<path d="M20.2271 20.2941C20.3239 20.4586 20.3239 20.4296 20.2561 20.5554C20.2077 20.6425 20.1012 20.7199 20.0334 20.7876C19.8881 20.9425 20.5177 20.9038 20.6339 20.7876C20.7308 20.6909 20.9535 20.5263 21.002 20.4005C21.0601 20.2457 20.9438 20.1876 20.8373 20.0908C20.5177 19.8199 20.3143 19.4715 20.2077 19.0747C20.1496 18.9101 19.8881 19.7328 20.2271 20.2941Z" fill="#E4B099"/>
<g clip-path="url(#clip1)">
<path d="M21.6856 22.0604C21.5887 22.0867 20.9547 21.9622 20.8121 21.932C20.6694 21.9018 20.4001 21.7762 20.2714 21.8447C20.1409 21.9008 19.9224 21.9568 19.9224 21.9568C19.873 21.9638 19.7693 21.8526 19.7007 21.8119C19.632 21.7713 19.1933 21.7828 19.0752 21.8372C18.9694 21.8899 18.2681 22.0013 18.2681 22.0013C18.3982 22.1214 19.3423 22.2147 19.3899 22.1954C19.4358 22.1638 20.0822 22.1984 20.4151 22.2396C20.748 22.2807 21.3383 22.1849 21.5463 22.143C21.7525 22.0888 21.7826 22.0342 21.6856 22.0604Z" fill="#FF9497"/>
<path d="M21.0911 22.572C21.0911 22.572 20.3223 22.9194 19.7412 22.8127C19.1477 22.7076 18.6726 22.372 18.5531 22.2379C18.4212 22.1056 18.1995 21.9607 18.1924 21.9994C18.1924 21.9994 18.4718 22.3752 18.5385 22.4916C18.6052 22.608 18.8945 23.4101 20.096 23.3665C20.096 23.3665 20.7479 23.3501 21.2297 22.8418C21.7133 22.3459 21.9023 22.0802 21.906 22.0168L21.6768 22.0869C21.6539 22.1027 21.7948 22.1206 21.0911 22.572Z" fill="#FF9497"/>
<path d="M21.3508 22.1832C21.3082 22.3275 20.7054 22.5132 20.2367 22.5793C19.7574 22.6594 19.1746 22.4522 18.9088 22.3513C18.643 22.2504 18.6362 22.113 18.6362 22.113L18.4583 22.1003C18.6251 22.3913 19.4082 22.8596 20.12 22.8222C20.8335 22.797 21.1635 22.4612 21.3892 22.3664C21.6149 22.2717 21.6592 22.1397 21.6592 22.1397L21.5852 22.1501L21.3508 22.1832Z" fill="#5B2323"/>
<path d="M20.9666 22.2247C20.9419 22.2282 19.929 22.1823 19.9167 22.184C19.9043 22.1858 18.6272 22.1394 18.6272 22.1394C18.6272 22.1394 18.6604 22.2857 18.752 22.3105C18.8559 22.3336 19.3469 22.604 19.7732 22.5943C20.1996 22.5845 20.677 22.5801 20.9979 22.4468C21.3311 22.3117 21.3629 22.2695 21.3384 22.1849C21.3507 22.1832 20.9772 22.2107 20.9666 22.2247Z" fill="white"/>
<g opacity="0.6">
<g opacity="0.6">
<path opacity="0.6" d="M21.8248 22.066C21.7173 22.1063 21.6678 22.2014 21.5778 22.277C21.5654 22.2787 21.5672 22.291 21.5549 22.2928C21.5549 22.2928 21.5549 22.2928 21.5425 22.2945C21.1687 22.4982 20.8072 22.7001 20.4088 22.8192C20.2854 22.8366 20.1604 22.8416 20.0476 22.8449C19.9595 22.8448 19.8697 22.8323 19.7799 22.8198C19.7411 22.8127 19.7147 22.8038 19.676 22.7967C19.6496 22.7878 19.6126 22.7931 19.5861 22.7842C19.5474 22.7771 19.5227 22.7806 19.4963 22.7717C19.3009 22.7238 19.1266 22.6477 18.9594 22.5329C18.7113 22.3792 18.5268 22.141 18.2681 22.0014C18.2293 21.9942 18.2064 22.01 18.2222 22.033C18.2538 22.0788 18.2855 22.1247 18.3418 22.1671C18.426 22.3187 18.5103 22.4704 18.6069 22.6203C18.7194 22.7932 18.9006 22.9186 19.0342 23.0633C19.1943 23.2169 19.4636 23.3424 19.7172 23.357C19.77 23.3747 19.8211 23.3801 19.8705 23.3731C19.8969 23.382 19.9233 23.3908 19.962 23.398C20.0642 23.4087 20.1735 23.3807 20.2739 23.3791C20.473 23.3637 20.6846 23.2583 20.8574 23.1459C20.9632 23.0933 21.0655 23.0159 21.1538 22.928C21.2544 22.8383 21.3426 22.7504 21.4291 22.6502C21.4503 22.622 21.4838 22.5921 21.505 22.564C21.5792 22.4655 21.6551 22.3793 21.7293 22.2808C21.784 22.2227 21.8264 22.1664 21.8688 22.1101C21.8512 22.0749 21.8354 22.0519 21.8248 22.066ZM21.1647 22.7378C21.0765 22.8257 20.9618 22.9047 20.8753 23.005C20.8524 23.0208 20.8171 23.0384 20.7942 23.0542C20.5614 23.1876 20.2619 23.2047 20.0011 23.2289C19.8143 23.2427 19.6347 23.2177 19.4516 23.168C19.2914 23.1025 19.1418 23.023 18.9958 22.88C18.922 22.8024 18.8498 22.737 18.7777 22.6717C18.7584 22.6241 18.7286 22.5906 18.6987 22.5571C18.6846 22.5465 18.6811 22.5218 18.667 22.5112C18.667 22.5112 18.667 22.5112 18.6653 22.4989C18.6636 22.4865 18.6495 22.4759 18.6354 22.4653C18.6196 22.4424 18.6038 22.4195 18.588 22.3966L18.5862 22.3842C18.7006 22.4813 18.8132 22.5661 18.9364 22.6368C19.0736 22.7181 19.2215 22.7853 19.3782 22.8261C19.4433 22.8421 19.4944 22.8474 19.5455 22.8528C19.5719 22.8617 19.5983 22.8705 19.6247 22.8794C19.6247 22.8794 19.6371 22.8777 19.6388 22.89C19.8871 22.9556 20.1777 22.965 20.4192 22.8932C20.4809 22.8845 20.5408 22.8635 20.6131 22.8407C20.8193 22.7865 21.0221 22.7076 21.209 22.6057C21.2672 22.5723 21.313 22.5407 21.373 22.5197C21.3077 22.5918 21.2424 22.6639 21.1647 22.7378Z" fill="#E84955"/>
<path opacity="0.6" d="M21.6502 22.078C21.3667 22.0299 21.0814 21.9695 20.7944 21.8968C20.6641 21.8648 20.5602 21.8417 20.4474 21.845C20.458 21.831 20.4563 21.8186 20.4422 21.808C20.4175 21.8115 20.3929 21.815 20.3682 21.8185C20.2678 21.82 20.2007 21.8798 20.1196 21.929C19.9679 22.0133 19.8835 21.9497 19.7726 21.8773C19.7586 21.8667 19.7321 21.8578 19.7304 21.8455C19.6899 21.826 19.5966 21.7889 19.549 21.8081C19.3447 21.7866 19.1649 21.8497 18.9939 21.8864C18.8001 21.9389 18.5341 21.9261 18.3454 22.0156L18.3471 22.0279C18.3736 22.0368 18.3982 22.0333 18.4246 22.0422C18.5407 22.1516 18.7574 22.1714 18.9106 22.1875C19.0374 22.1948 19.1608 22.1774 19.2735 22.1741C19.3739 22.1725 19.4867 22.1692 19.5871 22.1676C19.7562 22.2067 19.9306 22.1947 20.1085 22.2073C20.2723 22.2094 20.4414 22.2484 20.6158 22.2364C20.9152 22.3074 21.2114 22.1776 21.5109 22.1606C21.562 22.1659 21.6007 22.1731 21.6501 22.1661C21.6853 22.1485 21.689 22.0851 21.6502 22.078ZM21.2256 22.1001C21.1886 22.1054 21.1393 22.1123 21.1023 22.1175C21.0653 22.1227 21.0282 22.128 20.9912 22.1332C20.8432 22.1541 20.7129 22.1221 20.5755 22.1289C20.4329 22.0987 20.2708 22.109 20.1316 22.1034C20.0171 22.0944 19.8903 22.0871 19.7652 22.0922C19.7388 22.0833 19.7264 22.0851 19.7018 22.0885C19.6648 22.0938 19.6154 22.1007 19.5784 22.1059C19.4128 22.0915 19.249 22.0895 19.0746 22.1015C18.9354 22.0959 18.8333 22.0852 18.717 22.0638C18.7153 22.0515 18.7012 22.0409 18.6889 22.0426C18.6871 22.0303 18.6748 22.032 18.6625 22.0338C18.7241 22.0251 18.7982 22.0147 18.8704 21.9919C19.0784 21.95 19.3376 21.8254 19.5525 21.8328C19.593 21.8523 19.6317 21.8594 19.6705 21.8665C19.6969 21.8754 19.7109 21.886 19.7391 21.9072C19.7549 21.9301 19.769 21.9407 19.7848 21.9636C19.7848 21.9636 19.7848 21.9636 19.7989 21.9742C19.8411 22.006 19.9062 22.022 19.945 22.0291C20.0489 22.0522 20.1529 21.9872 20.2464 21.9363C20.5918 21.8876 20.9122 22.0185 21.2503 22.0967C21.2379 22.0984 21.2379 22.0984 21.2256 22.1001Z" fill="#E84955"/>
</g>
</g>
<g opacity="0.5">
<g opacity="0.5">
<path opacity="0.5" d="M19.1157 22.8379C19.0911 22.8414 19.0805 22.8555 19.0716 22.8819C19.061 22.896 19.0733 22.8942 19.0857 22.8925C19.1104 22.889 19.1209 22.8749 19.1315 22.8609C19.1298 22.8485 19.1281 22.8362 19.1157 22.8379Z" fill="#FFD9DC"/>
<path opacity="0.5" d="M19.2335 22.8716C19.2335 22.8716 19.2458 22.8699 19.2335 22.8716C19.2547 22.8435 19.2142 22.824 19.2036 22.8381C19.1807 22.8539 19.1577 22.8697 19.1366 22.8979C19.126 22.912 19.1418 22.9349 19.1524 22.9208L19.1647 22.9191C19.1664 22.9314 19.1805 22.942 19.2052 22.9385C19.2175 22.9368 19.2158 22.9244 19.2281 22.9227C19.2299 22.935 19.2299 22.935 19.2439 22.9456C19.258 22.9562 19.2703 22.9545 19.2809 22.9404C19.2915 22.9263 19.2898 22.914 19.2863 22.8893C19.2722 22.8787 19.2458 22.8699 19.2335 22.8716Z" fill="#FFD9DC"/>
<path opacity="0.5" d="M19.4499 22.9795C19.4481 22.9672 19.4481 22.9672 19.4499 22.9795C19.4358 22.9689 19.4358 22.9689 19.4358 22.9689C19.4341 22.9566 19.4323 22.9442 19.4306 22.9319C19.4289 22.9196 19.4148 22.909 19.4042 22.923C19.3918 22.9248 19.3918 22.9248 19.3813 22.9388C19.3795 22.9265 19.3795 22.9265 19.3778 22.9142C19.3743 22.8895 19.3602 22.8789 19.3373 22.8947C19.3284 22.9211 19.3196 22.9475 19.3107 22.9739C19.3019 23.0004 19.3423 23.0198 19.3512 22.9934C19.3618 22.9793 19.3618 22.9793 19.3741 22.9776C19.3759 22.9899 19.3776 23.0023 19.3653 23.004C19.3564 23.0304 19.3986 23.0622 19.4198 23.034C19.441 23.0059 19.4516 22.9918 19.4499 22.9795C19.4516 22.9918 19.4516 22.9918 19.4499 22.9795C19.4551 23.0165 19.4568 23.0288 19.4586 23.0412C19.4603 23.0535 19.485 23.05 19.4832 23.0377C19.4938 23.0236 19.5044 23.0095 19.501 22.9849C19.5081 22.9461 19.4587 22.9531 19.4499 22.9795Z" fill="#FFD9DC"/>
<path opacity="0.5" d="M19.5381 22.9797C19.5399 22.992 19.531 23.0184 19.5345 23.0431C19.5362 23.0554 19.538 23.0677 19.5503 23.066L19.5644 23.0766C19.5767 23.0749 19.5873 23.0608 19.5856 23.0484C19.5944 23.022 19.591 22.9974 19.5875 22.9727C19.5717 22.9498 19.5347 22.955 19.5381 22.9797Z" fill="#FFD9DC"/>
<path opacity="0.5" d="M19.6948 23.0204C19.6948 23.0204 19.6842 23.0345 19.6719 23.0363L19.6702 23.0239C19.6773 22.9852 19.6245 22.9675 19.6173 23.0062C19.6085 23.0326 19.612 23.0573 19.6049 23.096C19.596 23.1224 19.6365 23.1419 19.6577 23.1137C19.6577 23.1137 19.6789 23.0856 19.7018 23.0698C19.7053 23.0945 19.7087 23.1191 19.7228 23.1297C19.7369 23.1403 19.7616 23.1368 19.7598 23.1245C19.7669 23.0858 19.7494 23.0505 19.7442 23.0135C19.7407 22.9888 19.7037 22.994 19.6948 23.0204Z" fill="#FFD9DC"/>
<path opacity="0.5" d="M19.9115 23.0402C19.915 23.0649 19.9079 23.1036 19.9237 23.1266C19.9254 23.1389 19.9501 23.1354 19.9484 23.1231C19.9572 23.0967 19.9503 23.0473 19.9221 23.0261C19.9344 23.0244 19.9098 23.0279 19.9115 23.0402Z" fill="#FFD9DC"/>
<path opacity="0.5" d="M20.0965 23.0141C20.0859 23.0282 20.0859 23.0282 20.0753 23.0423L20.0735 23.0299C20.0701 23.0053 20.0331 23.0105 20.0365 23.0352C20.04 23.0598 20.0418 23.0722 20.0452 23.0968C20.0487 23.1215 20.0875 23.1286 20.0963 23.1022C20.0946 23.0899 20.1052 23.0758 20.1175 23.0741C20.1192 23.0864 20.1333 23.097 20.1351 23.1093C20.1491 23.1199 20.1615 23.1182 20.1597 23.1059C20.1686 23.0794 20.151 23.0442 20.1352 23.0213C20.1212 23.0107 20.0947 23.0018 20.0965 23.0141Z" fill="#FFD9DC"/>
<path opacity="0.5" d="M20.3309 22.9811C20.3168 22.9705 20.3062 22.9846 20.3079 22.9969C20.3079 22.9969 20.3079 22.9969 20.3062 22.9846C20.301 22.9476 20.2516 22.9545 20.2568 22.9915C20.2603 23.0162 20.2638 23.0409 20.2673 23.0655C20.2708 23.0902 20.3095 23.0973 20.3184 23.0709C20.3166 23.0586 20.329 23.0568 20.3272 23.0445C20.343 23.0674 20.3712 23.0886 20.4082 23.0834C20.4205 23.0817 20.4311 23.0676 20.4188 23.0693C20.3977 23.0094 20.3607 23.0146 20.3309 22.9811Z" fill="#FFD9DC"/>
<path opacity="0.5" d="M20.5053 22.9691C20.5001 22.9321 20.4384 22.9408 20.4436 22.9778C20.4488 23.0148 20.4646 23.0377 20.5034 23.0448C20.5157 23.0431 20.5263 23.029 20.5246 23.0167C20.5105 23.0061 20.5088 22.9938 20.5053 22.9691Z" fill="#FFD9DC"/>
<path opacity="0.5" d="M20.5424 22.9639C20.5476 23.0009 20.5792 23.0467 20.6162 23.0415C20.6286 23.0398 20.6392 23.0257 20.6392 23.0257C20.6357 23.001 20.6216 22.9904 20.6181 22.9658C20.6094 22.9041 20.5354 22.9145 20.5424 22.9639Z" fill="#FFD9DC"/>
<path opacity="0.5" d="M20.7361 22.9114C20.7185 22.8761 20.6727 22.9077 20.6885 22.9307C20.7043 22.9536 20.7219 22.9889 20.7589 22.9836C20.7712 22.9819 20.7818 22.9678 20.7677 22.9572C20.7536 22.9466 20.7396 22.936 20.7361 22.9114Z" fill="#FFD9DC"/>
<path opacity="0.5" d="M20.7854 22.9044C20.7854 22.9044 20.7837 22.8921 20.7854 22.9044C20.7713 22.8938 20.7731 22.9062 20.7854 22.9044Z" fill="#FFD9DC"/>
<path opacity="0.5" d="M20.9124 22.8236C20.8966 22.8007 20.8507 22.8323 20.8665 22.8552C20.8806 22.8658 20.8946 22.8764 20.9087 22.887C20.9211 22.8853 20.9334 22.8836 20.9334 22.8836C20.9457 22.8818 20.944 22.8695 20.9423 22.8571C20.9388 22.8325 20.9264 22.8342 20.9124 22.8236Z" fill="#FFD9DC"/>
<path opacity="0.5" d="M19.0894 22.741C19.0524 22.7462 19.0312 22.7744 18.9942 22.7796C18.9818 22.7813 18.9871 22.8183 18.9977 22.8042C19.0347 22.799 19.0717 22.7938 19.0929 22.7657C19.1158 22.7499 19.1017 22.7393 19.0894 22.741Z" fill="#FFD9DC"/>
<path opacity="0.5" d="M19.6107 21.8875C19.572 21.8804 19.5315 21.861 19.4962 21.8785L19.4856 21.8926C19.5032 21.9279 19.5419 21.935 19.5701 21.9562C19.6105 21.9756 19.6651 22.0057 19.7021 22.0004C19.7144 21.9987 19.725 21.9846 19.7216 21.96C19.704 21.9247 19.6635 21.9052 19.6107 21.8875Z" fill="#FFD9DC"/>
<path opacity="0.5" d="M20.1953 24.8747C20.1953 24.8747 20.1936 24.8623 20.1953 24.8747C20.1813 24.8641 20.183 24.8764 20.1953 24.8747Z" fill="#FFD9DC"/>
<path opacity="0.5" d="M20.3698 21.9189C20.3575 21.9206 20.3452 21.9224 20.3328 21.9241C20.2835 21.931 20.2235 21.9521 20.1918 21.9943C20.1812 22.0084 20.1952 22.019 20.2076 22.0172C20.308 22.0157 20.3909 21.9788 20.4878 21.9526C20.5001 21.9508 20.4984 21.9385 20.4861 21.9402C20.4473 21.9331 20.4086 21.926 20.3698 21.9189Z" fill="#FFD9DC"/>
</g>
</g>
<path d="M19.3534 22.9176C19.3305 22.9335 19.3322 22.9458 19.3216 22.9599C19.3216 22.9599 19.3234 22.9722 19.3357 22.9705C19.3586 22.9547 19.371 22.9529 19.3534 22.9176C19.3675 22.9282 19.3657 22.9159 19.3534 22.9176Z" fill="#FFD9DC"/>
<path d="M19.4097 22.96C19.3973 22.9618 19.3867 22.9758 19.3885 22.9882C19.392 23.0128 19.4166 23.0094 19.4272 22.9953C19.4255 22.983 19.4255 22.983 19.4361 22.9689C19.422 22.9583 19.4097 22.96 19.4097 22.96Z" fill="#FFD9DC"/>
<path d="M19.7212 23.0293C19.7124 23.0557 19.7141 23.068 19.7299 23.091L19.7423 23.0892C19.7511 23.0628 19.7371 23.0522 19.7212 23.0293C19.7318 23.0152 19.7195 23.017 19.7212 23.0293Z" fill="#FFD9DC"/>
<path d="M20.1002 23.0388C20.0985 23.0265 20.0738 23.03 20.0755 23.0423C20.079 23.067 20.0825 23.0916 20.1089 23.1005C20.1212 23.0987 20.1212 23.0987 20.1195 23.0864C20.1177 23.0741 20.1037 23.0635 20.1002 23.0388Z" fill="#FFD9DC"/>
<path d="M20.2693 22.9898C20.2604 23.0162 20.2762 23.0391 20.2903 23.0497C20.292 23.0621 20.3167 23.0586 20.315 23.0462C20.3115 23.0216 20.3098 23.0092 20.2939 22.9863C20.2816 22.988 20.2693 22.9898 20.2693 22.9898Z" fill="#FFD9DC"/>
<path d="M20.3239 23.0198C20.3256 23.0322 20.3379 23.0304 20.352 23.041C20.3661 23.0516 20.3767 23.0375 20.3749 23.0252C20.3732 23.0129 20.3591 23.0023 20.3591 23.0023C20.3327 22.9934 20.3098 23.0092 20.3239 23.0198Z" fill="#FFD9DC"/>
<path d="M20.5671 22.9604C20.5705 22.9851 20.5723 22.9974 20.5987 23.0062C20.611 23.0045 20.6234 23.0028 20.6216 22.9904C20.6199 22.9781 20.6058 22.9675 20.6041 22.9552C20.5883 22.9322 20.5636 22.9357 20.5671 22.9604Z" fill="#FFD9DC"/>
<path d="M19.5614 21.8945C19.5614 21.8945 19.5508 21.9086 19.5614 21.8945C19.556 21.9456 19.6088 21.9633 19.6318 21.9475C19.6441 21.9457 19.6406 21.9211 19.6389 21.9087C19.6265 21.9105 19.5861 21.891 19.5614 21.8945Z" fill="#FFD9DC"/>
<path d="M20.28 21.9945C20.3064 22.0033 20.3311 21.9998 20.3434 21.9981C20.3558 21.9964 20.354 21.984 20.3417 21.9858C20.3242 21.9505 20.2748 21.9575 20.28 21.9945Z" fill="#FFD9DC"/>
<g opacity="0.3">
<path opacity="0.3" d="M21.5869 22.1624C21.5746 22.1642 21.5746 22.1642 21.5623 22.1659C21.5499 22.1677 21.5376 22.1694 21.5376 22.1694C21.3015 22.1901 21.0706 22.2478 20.831 22.2439C20.8063 22.2473 20.7799 22.2385 20.7553 22.242C20.7553 22.242 20.7553 22.242 20.7429 22.2437C20.4365 22.2114 20.1142 22.1562 19.8058 22.1997C19.6491 22.1589 19.4517 22.1867 19.3002 22.1829C19.0342 22.1701 18.7648 22.1326 18.5111 22.1181C18.4988 22.1198 18.4882 22.1339 18.5022 22.1445C18.5163 22.1551 18.5304 22.1657 18.5445 22.1763L18.5462 22.1886C18.5462 22.1886 18.562 22.2115 18.5761 22.2221C18.5989 22.2944 18.6833 22.358 18.7485 22.3739C18.7608 22.3722 18.7608 22.3722 18.7608 22.3722L18.7749 22.3828C18.7889 22.3934 18.803 22.404 18.8171 22.4146C18.8699 22.4323 18.9351 22.4483 18.9896 22.4783C19.0953 22.5137 19.1903 22.5632 19.2959 22.5987C19.4561 22.6641 19.6252 22.7032 19.7855 22.6806C20.0373 22.7709 20.3298 22.7045 20.5854 22.6433C20.915 22.5717 21.2623 22.4472 21.5357 22.2452C21.5604 22.2417 21.5833 22.2259 21.608 22.2224C21.6432 22.2048 21.6239 22.1572 21.5869 22.1624ZM20.5838 22.5429C20.3882 22.5831 20.1679 22.6267 19.9653 22.6175C19.9636 22.6052 19.9495 22.5946 19.9249 22.5981C19.8878 22.6033 19.8491 22.5962 19.7998 22.6031C19.7874 22.6049 19.7874 22.6049 19.7751 22.6066C19.6483 22.5993 19.5444 22.5762 19.4141 22.5443C19.3348 22.5177 19.2433 22.4929 19.1675 22.491C19.1147 22.4733 19.0619 22.4555 19.0091 22.4378C18.9545 22.4078 18.8876 22.3795 18.8331 22.3494C18.7908 22.3176 18.7504 22.2982 18.7081 22.2664C18.7064 22.2541 18.6941 22.2558 18.68 22.2452C18.9177 22.3249 19.1943 22.3237 19.455 22.2995C19.4674 22.2977 19.4797 22.296 19.4797 22.296C19.5819 22.3068 19.684 22.3175 19.7827 22.3036C19.8584 22.3055 19.9219 22.3091 19.9976 22.311C20.0099 22.3093 20.0223 22.3076 20.0487 22.3164C20.061 22.3147 20.0734 22.3129 20.0857 22.3112C20.1104 22.3077 20.1368 22.3166 20.1614 22.3131C20.3552 22.3487 20.5666 22.3315 20.7568 22.3424C20.9207 22.3444 21.0968 22.3448 21.2537 22.2975L21.2661 22.2957C21.0685 22.4117 20.8411 22.494 20.5838 22.5429Z" fill="#FA8489"/>
</g>
<path d="M21.8498 21.7983C21.8498 21.7983 21.8392 21.8123 21.8498 21.7983C21.8691 21.8459 21.9007 21.8917 21.92 21.9393C21.92 21.9393 21.92 21.9393 21.9218 21.9517C21.8759 21.9833 21.83 22.0149 21.7824 22.0342C21.5217 22.0584 21.3033 22.0263 21.0515 21.936C20.879 21.8722 20.4599 21.7552 20.3013 21.7901C20.252 21.7971 20.215 21.8023 20.1691 21.8339C20.1568 21.8357 20.1585 21.848 20.1462 21.8498C20.1003 21.8814 20.0421 21.9148 19.9928 21.9217C19.9681 21.9252 19.9558 21.9269 19.9311 21.9304C19.8255 21.895 19.7728 21.7892 19.6689 21.7661C19.4998 21.727 19.3289 21.7637 19.1703 21.7986C18.9976 21.823 18.8284 21.872 18.6574 21.9087C18.5587 21.9226 18.4601 21.9365 18.3614 21.9504C18.2874 21.9609 18.2222 21.9449 18.1588 21.9412C18.1324 21.9324 18.106 21.9235 18.0796 21.9147C18.0778 21.9023 18.0884 21.8883 18.0867 21.8759C18.1044 21.8231 18.1485 21.7792 18.1539 21.7281L18.1522 21.7157C18.0905 21.7244 18.0516 21.8054 18.0321 21.8459C17.9932 21.9269 17.9807 22.0167 18.0282 22.0855C18.0299 22.0978 18.0546 22.0943 18.0529 22.082C18.06 22.0432 18.0671 22.0045 18.0742 21.9658C18.368 22.1759 18.4748 22.576 18.6909 22.8601C18.8755 23.0982 19.1834 23.319 19.4916 23.3636C19.6606 23.4027 19.8403 23.4277 19.9918 23.4315C20.2313 23.4354 20.4516 23.3918 20.6526 23.3006C20.8113 23.2656 20.9471 23.1584 21.0706 23.0529C21.0706 23.0529 21.0829 23.0512 21.0812 23.0389C21.0812 23.0389 21.0812 23.0389 21.0795 23.0265C21.1571 22.9527 21.256 22.8507 21.3213 22.7786C21.5419 22.5588 21.8297 22.1911 21.9146 21.9904C21.9463 22.0363 21.9497 22.0609 21.955 22.0979C21.9567 22.1103 21.9814 22.1068 21.9796 22.0945C22.0309 22.0118 21.9414 21.8231 21.8498 21.7983ZM19.0344 21.9059C19.2301 21.8657 19.5421 21.7588 19.7233 21.8842C19.7374 21.8948 19.7638 21.9037 19.7779 21.9143C19.8095 21.9601 19.864 21.9902 19.9292 22.0062C20.019 22.0186 20.1371 21.9643 20.2165 21.9027C20.3241 21.8624 20.4386 21.8714 20.5548 21.8928C20.634 21.9194 21.3542 22.1197 21.6184 22.1202C21.5338 22.1447 21.3505 22.1832 21.2519 22.1971C21.1285 22.2145 20.9911 22.2213 20.866 22.2263C20.6775 22.2277 20.4855 22.2045 20.2953 22.1936C20.1314 22.1915 19.9501 22.1542 19.7739 22.1538C19.6841 22.1414 19.5836 22.1429 19.4973 22.1551C19.3581 22.1496 19.2225 22.1687 19.0956 22.1614C18.9794 22.1401 18.8402 22.1345 18.7117 22.1149C18.5831 22.0953 18.4757 22.0475 18.3577 22.0138C18.585 22.0195 18.8159 21.9618 19.0344 21.9059ZM19.2341 22.5193C19.4578 22.5884 19.706 22.654 19.9439 22.6457C20.6081 22.6275 21.3271 22.4632 21.3681 22.2184C21.4421 22.208 21.5161 22.1976 21.5884 22.1748C21.5196 22.2222 21.4508 22.2697 21.382 22.3171C21.2003 22.456 20.9887 22.5613 20.7736 22.6419C20.4651 22.7735 20.1286 22.7958 19.8115 22.7776C19.5174 22.7435 19.2269 22.6461 18.9664 22.4941C18.8292 22.4128 18.6901 22.3192 18.5741 22.2098C18.5583 22.1869 18.5442 22.1763 18.516 22.1551C18.5425 22.1639 18.5812 22.171 18.6076 22.1799C18.6865 22.3826 19.051 22.4696 19.2341 22.5193ZM18.671 22.1835C18.9035 22.2262 19.1537 22.2161 19.3932 22.2201C19.5324 22.2256 19.6716 22.2312 19.809 22.2244C20.0503 22.2407 20.2916 22.257 20.5436 22.2592C20.8095 22.272 21.0721 22.2602 21.3311 22.2236C21.2708 22.4208 20.4866 22.5692 20.0603 22.5789C19.8982 22.5892 19.7573 22.5713 19.6023 22.5429C19.4473 22.5144 19.2783 22.4753 19.1339 22.4328C18.9772 22.392 18.7659 22.3211 18.671 22.1835ZM20.547 23.2651C20.3531 23.3176 20.1558 23.3455 19.9549 23.3486C19.74 23.3412 19.5305 23.2826 19.3209 23.2241C18.9988 23.0808 18.7279 22.8548 18.5524 22.5022C18.5121 22.3947 18.368 22.1759 18.2749 22.0507C18.3946 22.0967 18.5458 22.2767 18.632 22.3526C18.7762 22.4832 18.9398 22.5734 19.1158 22.6618C19.3059 22.7608 19.5295 22.8299 19.7568 22.8356C20.4806 22.9726 21.2917 22.5689 21.8017 22.0818C21.8141 22.0801 21.8247 22.066 21.8476 22.0502C21.5172 22.5622 21.0795 23.0265 20.547 23.2651Z" fill="#FA8489"/>
<path d="M21.8997 21.6151C21.9471 21.6839 21.9805 21.7421 22.0032 21.8144C22.026 21.8867 22.0364 21.9607 22.0715 22.0312C22.0733 22.0436 22.0856 22.0418 22.0839 22.0295C22.1018 21.8886 22.0123 21.6999 21.8997 21.6151C21.912 21.6134 21.8997 21.6151 21.8997 21.6151Z" fill="#FA8489"/>
<path d="M18.0222 21.5957C17.9886 21.6256 17.9428 21.6572 17.8987 21.7012C17.8439 21.7592 17.7804 21.8437 17.7802 21.9317C17.7819 21.9441 17.7943 21.9423 17.8049 21.9283C17.8455 21.8596 17.8844 21.7787 17.9497 21.7066C17.9815 21.6643 18.0274 21.6327 18.0732 21.6011C18.1068 21.5712 18.1386 21.529 18.1738 21.5114L18.1721 21.4991C18.1262 21.5307 18.068 21.5641 18.0222 21.5957Z" fill="#FA8489"/>
<g opacity="0.3">
<g opacity="0.3">
<path opacity="0.3" d="M19.9343 22.2193C19.9289 22.2704 19.9235 22.3215 19.9181 22.3726C19.911 22.4113 19.9162 22.4483 19.9338 22.4836C19.9355 22.4959 19.9584 22.4801 19.9584 22.4801C19.9656 22.4413 19.9586 22.392 19.964 22.3409C19.9588 22.3039 19.9641 22.2528 19.9589 22.2158C19.9554 22.1912 19.9325 22.207 19.9343 22.2193Z" fill="#FA8489"/>
<path opacity="0.3" d="M20.3534 22.2483C20.3463 22.287 20.3392 22.3258 20.3444 22.3628C20.3496 22.3998 20.3425 22.4385 20.36 22.4738C20.3618 22.4861 20.3864 22.4826 20.3847 22.4703C20.4059 22.4422 20.4007 22.4052 20.3955 22.3682C20.3902 22.3311 20.385 22.2941 20.3534 22.2483C20.3657 22.2465 20.3534 22.2483 20.3534 22.2483Z" fill="#FA8489"/>
<path opacity="0.3" d="M20.8308 22.2439C20.8254 22.2949 20.8077 22.3478 20.8287 22.4077C20.8305 22.42 20.8552 22.4166 20.8534 22.4042C20.8835 22.3497 20.8518 22.3038 20.8431 22.2421C20.8431 22.2421 20.8414 22.2298 20.8308 22.2439Z" fill="#FA8489"/>
<path opacity="0.3" d="M19.4605 22.1603C19.427 22.1902 19.4322 22.2272 19.4251 22.2659C19.4179 22.3047 19.4143 22.3681 19.4195 22.4051C19.4213 22.4174 19.4336 22.4157 19.4442 22.4016C19.4636 22.3612 19.469 22.3101 19.4761 22.2713C19.485 22.2449 19.4904 22.1938 19.4605 22.1603C19.4728 22.1586 19.4605 22.1603 19.4605 22.1603Z" fill="#FA8489"/>
<path opacity="0.3" d="M19.0359 22.1824C19.0287 22.2212 19.0357 22.2705 19.0409 22.3075C19.0427 22.3199 19.055 22.3181 19.0656 22.3041C19.0868 22.2759 19.0798 22.2266 19.0605 22.179C19.0588 22.1666 19.0341 22.1701 19.0359 22.1824Z" fill="#FA8489"/>
</g>
</g>
</g>
<path d="M19.2242 15.2422C19.1854 15.2326 19.1467 15.2326 19.1079 15.2229C16.8317 14.7293 15.6694 15.9294 15.6985 15.8713C15.5919 15.9584 15.4369 16.0358 15.3498 16.0261C15.2626 16.0165 15.2626 15.9294 15.3691 15.8326C15.3691 15.8907 16.1634 14.0809 18.8852 14.5842C19.0789 14.6325 19.3598 15.2616 19.2242 15.2422Z" fill="#231F20"/>
<path d="M20.9549 15.1648C20.9936 15.1551 21.0227 15.1551 21.0614 15.1455C23.0955 14.6229 24.3547 15.6971 24.3159 15.6584C24.4321 15.7455 24.5871 15.8036 24.6743 15.7939C24.7615 15.7842 24.7518 15.6971 24.6356 15.6003C24.6452 15.639 23.6476 14.0228 21.197 14.5938C21.0227 14.6325 20.8289 15.1842 20.9549 15.1648Z" fill="#231F20"/>
<g clip-path="url(#clip2)">
<path fill-rule="evenodd" clip-rule="evenodd" d="M22.9963 7.20914C25.8416 7.45995 27.1382 8.57067 26.8716 10.5342C26.9941 8.67816 25.7191 7.56027 22.9963 7.20914Z" fill="#352E2C"/>
<path fill-rule="evenodd" clip-rule="evenodd" d="M12.5591 11.2651C11.1905 13.1211 11.1833 14.4969 12.5231 15.3855C11.4786 14.4109 11.4858 13.0422 12.5591 11.2651Z" fill="#352E2C"/>
<path fill-rule="evenodd" clip-rule="evenodd" d="M16.6795 3.99876C14.6482 5.79026 14.5401 6.87233 16.3697 7.23779C14.785 6.71467 14.8931 5.63261 16.6795 3.99876Z" fill="#352E2C"/>
<path fill-rule="evenodd" clip-rule="evenodd" d="M22.9461 7.66774C20.7852 8.68531 18.8331 8.68531 17.0827 7.66774C16.0959 7.40977 15.5989 6.78633 15.5845 5.80459C15.5845 5.002 15.8942 4.40005 16.4993 3.99876C16.2616 3.17467 16.6577 2.58706 17.695 2.22876C18.6602 1.69131 19.4958 1.47633 20.2017 1.59815C22.2402 1.94928 23.4863 2.73038 23.9473 3.94143C24.149 4.43588 24.149 4.94467 23.9473 5.46778C23.8537 5.92641 23.6376 6.36353 23.2919 6.77199C23.3639 7.11596 23.2414 7.41693 22.9461 7.66774Z" fill="#352E2C"/>
<path fill-rule="evenodd" clip-rule="evenodd" d="M21.4551 1.89197C22.766 2.31476 23.6016 2.99553 23.9546 3.94144C24.1562 4.43589 24.1562 4.94468 23.9546 5.4678C23.8609 5.92642 23.6448 6.36355 23.2991 6.77201C23.3495 7.04431 23.2775 7.29512 23.0974 7.5101C21.8945 7.45994 20.2377 6.77201 18.1272 5.4463C20.6483 4.7512 21.7576 3.56881 21.4551 1.89197Z" fill="#332B29"/>
<path fill-rule="evenodd" clip-rule="evenodd" d="M12.1197 12.8058C12.0909 12.3758 12.1557 11.91 12.307 11.5231C12.5735 10.8495 12.6888 11.1934 12.8184 10.3478C12.8472 10.1544 12.8977 9.96804 12.9625 9.79605C13.2074 9.15112 13.6828 8.65666 14.2446 8.25537C15.7861 7.1518 19.0059 6.1199 20.6483 6.36355C21.1237 6.40654 21.5919 6.4997 22.0529 6.64302C22.4418 6.82933 22.8596 7.00132 23.2918 7.1733C24.1994 7.5316 25.107 7.86124 25.64 8.26253C25.8778 8.44168 26.1011 8.64233 26.2955 8.86448C26.5404 9.13678 26.7349 9.44492 26.879 9.78889C27.1527 10.4553 26.9222 10.5127 27.3616 11.1361C27.4552 11.2651 27.5273 11.4156 27.5921 11.5804C27.729 11.9458 27.7866 12.3758 27.7578 12.7771C27.7218 13.3576 27.6281 13.6729 27.6281 14.3465C27.6209 18.1659 25.6328 16.4389 25.532 20.6095C25.0494 18.732 24.9485 17.1054 25.2295 15.7295C25.3519 13.723 24.3507 12.3042 22.233 12.9348C19.1428 14.024 14.504 10.7706 14.7993 15.7295C15.0874 17.1054 14.9866 18.732 14.4968 20.6095C14.4031 16.5751 12.4222 18.0584 12.2638 14.7048C12.235 14.0025 12.1701 13.4722 12.1197 12.8058Z" fill="#332B29"/>
<path fill-rule="evenodd" clip-rule="evenodd" d="M15.5197 8.92897C15.3036 11.0788 15.5773 12.3615 16.3264 12.7843C15.851 11.9888 15.5845 10.7061 15.5197 8.92897Z" fill="#1F1817"/>
<path fill-rule="evenodd" clip-rule="evenodd" d="M24.358 8.92897C24.5741 11.0788 24.3004 12.3615 23.5513 12.7843C24.0339 11.9888 24.3004 10.7061 24.358 8.92897Z" fill="#1F1817"/>
<path fill-rule="evenodd" clip-rule="evenodd" d="M22.1825 8.16939C22.3986 10.914 22.1249 12.5621 21.3757 13.0996C21.8583 12.0892 22.1249 10.441 22.1825 8.16939Z" fill="#1F1817"/>
<path fill-rule="evenodd" clip-rule="evenodd" d="M17.5148 8.02606C17.2987 10.7706 17.5724 12.4188 18.3215 12.9563C17.8389 11.9387 17.5724 10.2977 17.5148 8.02606Z" fill="#1F1817"/>
<path fill-rule="evenodd" clip-rule="evenodd" d="M16.3191 7.33095C15.8437 6.99415 15.5988 6.49253 15.5916 5.80459C15.5916 5.002 15.9013 4.40006 16.5064 3.99876C18.3432 7.02998 22.0672 4.99484 23.2989 6.772C23.3205 6.90816 23.3206 7.04431 23.2845 7.16613C21.1452 6.01241 18.8258 6.06974 16.3191 7.33095Z" fill="#1F1817"/>
<path fill-rule="evenodd" clip-rule="evenodd" d="M22.1752 5.35314C22.8667 4.92318 23.3205 4.22091 23.5366 3.24634C23.7095 4.6867 22.8163 5.65411 20.8643 6.14856C21.4117 5.93358 21.8079 5.58245 22.0456 5.1095C21.5918 5.51079 20.9507 5.83326 20.1151 6.06257C20.8499 5.79743 21.527 5.33881 22.1536 4.67954C21.4261 5.31014 20.6698 5.69711 19.8918 5.85476C20.3456 5.69711 20.6554 5.50362 20.821 5.25998C20.3096 5.48213 19.7334 5.60395 19.0779 5.61828C19.6109 5.45346 20.3744 4.91601 21.3685 4.00593C21.1884 4.33557 20.8138 4.7512 20.252 5.24565C20.8643 5.01634 21.4765 4.48605 22.0816 3.64047C22.0744 3.9916 21.7575 4.45739 21.138 5.03784C21.7935 4.6867 22.3697 4.12776 22.8667 3.36099C22.7803 3.81245 22.5642 4.20658 22.2185 4.55055C22.5714 4.3929 22.946 3.93427 23.3277 3.18901C23.2197 3.9916 22.8379 4.71537 22.1752 5.35314Z" fill="#423A38"/>
<path fill-rule="evenodd" clip-rule="evenodd" d="M17.6302 4.59354C17.1908 4.23524 16.9242 3.6763 16.8234 2.9167C16.6361 4.0131 17.1836 4.79419 18.4657 5.25998C18.1056 5.0665 17.8607 4.78702 17.731 4.41439C18.0119 4.74403 18.4297 5.01634 18.9771 5.23132C18.5017 5.002 18.0695 4.61504 17.6878 4.08476C18.1416 4.60071 18.6242 4.93034 19.1428 5.08083C18.8475 4.94468 18.6458 4.77986 18.5522 4.58638C18.8835 4.77986 19.2653 4.89451 19.6975 4.93751C19.3517 4.79419 18.8619 4.3499 18.2496 3.60464C18.3577 3.86978 18.581 4.19941 18.9339 4.60071C18.5378 4.40006 18.156 3.96294 17.7886 3.2965C17.7742 3.56881 17.9615 3.94144 18.3505 4.40723C17.9255 4.10626 17.5725 3.6548 17.2772 3.04569C17.3132 3.39682 17.4357 3.71213 17.6518 3.98443C17.4213 3.84828 17.198 3.48281 16.9819 2.8952C16.9963 3.50431 17.2196 4.07759 17.6302 4.59354Z" fill="#504A49"/>
<path fill-rule="evenodd" clip-rule="evenodd" d="M18.192 9.99669C18.0552 9.29443 18.2424 8.53483 18.7467 7.71791C17.6806 8.64232 17.5942 9.83904 18.4657 11.3081C18.2713 10.8423 18.2568 10.3693 18.4297 9.89637C18.4441 10.441 18.6314 11.0358 18.9916 11.6807C18.7106 11.0716 18.5954 10.3622 18.653 9.53091C18.6818 10.3908 18.8907 11.1003 19.2725 11.6592C19.0924 11.2866 19.0348 10.9713 19.0924 10.7061C19.2581 11.1576 19.539 11.5732 19.928 11.9602C19.7047 11.5374 19.5894 10.7205 19.5822 9.50941C19.4742 9.84621 19.431 10.355 19.4526 11.0286C19.2221 10.5198 19.2005 9.78888 19.3877 8.84297C19.1572 9.10095 19.042 9.60973 19.042 10.3765C18.8691 9.75305 18.8835 9.02212 19.0852 8.19087C18.8403 8.5635 18.7106 8.96479 18.6962 9.40192C18.581 9.08661 18.653 8.54917 18.9195 7.79674C18.4513 8.43451 18.2064 9.17261 18.192 9.99669Z" fill="#423A38"/>
<path fill-rule="evenodd" clip-rule="evenodd" d="M21.7071 9.96087C21.8224 9.2586 21.6135 8.50617 21.0805 7.70358C22.1681 8.59933 22.2978 9.78889 21.4694 11.2866C21.6495 10.8136 21.6495 10.3407 21.4622 9.87488C21.4694 10.4195 21.2966 11.0214 20.958 11.6735C21.2173 11.0573 21.311 10.3407 21.2317 9.51658C21.2245 10.3765 21.0445 11.0931 20.6771 11.6592C20.8428 11.2866 20.8932 10.9641 20.8284 10.699C20.6771 11.1576 20.4106 11.5804 20.0288 11.9745C20.2377 11.5446 20.3313 10.7276 20.2953 9.50941C20.4106 9.84621 20.4754 10.355 20.4754 11.0286C20.6915 10.5126 20.6915 9.78172 20.4754 8.84297C20.7131 9.09378 20.8428 9.5954 20.8644 10.3622C21.0156 9.73156 20.9796 9.00063 20.7491 8.1837C21.0084 8.54917 21.1453 8.95046 21.1741 9.38759C21.275 9.06512 21.1885 8.53484 20.9076 7.78957C21.3974 8.41302 21.6639 9.13678 21.7071 9.96087Z" fill="#423A38"/>
<path fill-rule="evenodd" clip-rule="evenodd" d="M23.8681 9.77455C23.9618 9.18694 23.7889 8.5635 23.3495 7.89706C24.2571 8.63516 24.3651 9.63123 23.6736 10.871C23.8249 10.4768 23.8249 10.0827 23.6664 9.69573C23.6736 10.1472 23.5296 10.6488 23.2486 11.1934C23.4647 10.6846 23.544 10.0827 23.4719 9.40192C23.4647 10.1185 23.3135 10.7133 23.0109 11.1863C23.1478 10.8781 23.191 10.613 23.1334 10.3908C23.0037 10.7706 22.7876 11.1218 22.4707 11.4514C22.6436 11.0931 22.7228 10.4123 22.694 9.40192C22.7948 9.6814 22.8381 10.1042 22.8453 10.6631C23.0253 10.2332 23.0253 9.63123 22.8453 8.84297C23.0398 9.05079 23.155 9.47358 23.1694 10.1042C23.2991 9.58107 23.2631 8.97913 23.0758 8.29119C23.2919 8.59217 23.4071 8.92897 23.4287 9.28727C23.5152 9.02213 23.4431 8.57783 23.2054 7.96156C23.6088 8.48468 23.8321 9.08662 23.8681 9.77455Z" fill="#423A38"/>
<path fill-rule="evenodd" clip-rule="evenodd" d="M16.0526 9.77455C15.959 9.18694 16.1319 8.5635 16.5713 7.89706C15.6637 8.63516 15.5556 9.63123 16.2471 10.871C16.0959 10.4768 16.0959 10.0827 16.2543 9.69573C16.2471 10.1472 16.3912 10.6488 16.6721 11.1934C16.456 10.6846 16.3768 10.0827 16.4488 9.40192C16.456 10.1185 16.6073 10.7133 16.9098 11.1863C16.773 10.8781 16.7297 10.613 16.7874 10.3908C16.9098 10.7706 17.1331 11.1218 17.4501 11.4514C17.2772 11.0931 17.1979 10.4123 17.2268 9.40192C17.1259 9.6814 17.0827 10.1042 17.0755 10.6631C16.8954 10.2332 16.8954 9.63123 17.0755 8.84297C16.881 9.05079 16.7658 9.47358 16.7513 10.1042C16.6217 9.58107 16.6577 8.97913 16.845 8.29119C16.6289 8.59217 16.5136 8.92897 16.492 9.28727C16.4056 9.02213 16.4776 8.57783 16.7153 7.96156C16.3048 8.48468 16.0815 9.08662 16.0526 9.77455Z" fill="#423A38"/>
<path fill-rule="evenodd" clip-rule="evenodd" d="M13.5602 11.4227C13.2433 10.785 13.2145 10.0039 13.4882 9.07945C12.7102 10.2547 12.9407 11.4299 14.1797 12.6195C13.8627 12.2182 13.7259 11.7667 13.7619 11.2651C13.9204 11.7882 14.2589 12.3113 14.7775 12.8344C14.3454 12.3256 14.0428 11.6664 13.8772 10.8566C14.1365 11.6807 14.5254 12.3113 15.0441 12.7484C14.7703 12.4403 14.6335 12.1465 14.6191 11.8814C14.9 12.2755 15.2818 12.598 15.7572 12.8631C15.433 12.5191 15.1017 11.7595 14.7703 10.5843C14.7559 10.9426 14.8496 11.4442 15.0513 12.0892C14.6911 11.6592 14.475 10.9569 14.403 9.9967C14.2517 10.3048 14.2733 10.828 14.4822 11.5661C14.1509 11.0071 13.9708 10.3048 13.942 9.45208C13.8051 9.87488 13.7907 10.2977 13.8916 10.7276C13.6971 10.4553 13.625 9.91787 13.6755 9.12245C13.3873 9.84621 13.3513 10.6201 13.5602 11.4227Z" fill="#423A38"/>
<path fill-rule="evenodd" clip-rule="evenodd" d="M26.1948 11.4227C26.5117 10.785 26.5405 10.0039 26.2668 9.07945C27.0447 10.2547 26.8142 11.4299 25.5753 12.6195C25.8922 12.2182 26.0291 11.7667 25.9931 11.2651C25.8346 11.7882 25.4961 12.3113 24.9774 12.8344C25.4096 12.3256 25.7122 11.6664 25.8778 10.8566C25.6185 11.6807 25.2295 12.3113 24.7109 12.7484C24.9846 12.4403 25.1215 12.1465 25.1359 11.8814C24.855 12.2755 24.4732 12.598 23.9978 12.8631C24.3219 12.5191 24.6533 11.7595 24.9846 10.5843C24.999 10.9426 24.9054 11.4442 24.7037 12.0892C25.0639 11.6592 25.28 10.9569 25.352 9.9967C25.5033 10.3048 25.4817 10.828 25.2728 11.5661C25.6041 11.0071 25.7842 10.3048 25.813 9.45208C25.9499 9.87488 25.9643 10.2977 25.8634 10.7276C26.0579 10.4553 26.1299 9.91787 26.0795 9.12245C26.3604 9.84621 26.3965 10.6201 26.1948 11.4227Z" fill="#423A38"/>
<path fill-rule="evenodd" clip-rule="evenodd" d="M27.0015 13.5797C27.3328 13.1856 27.4769 12.6481 27.4409 11.953C27.7866 12.8989 27.4337 13.6872 26.3676 14.3106C26.6557 14.0813 26.8286 13.7875 26.8862 13.4364C26.6917 13.7732 26.3676 14.0885 25.9138 14.368C26.3028 14.0813 26.6197 13.6729 26.8718 13.1354C26.5549 13.6657 26.1803 14.0455 25.7409 14.2605C25.9786 14.0885 26.1299 13.9093 26.1875 13.723C25.9282 13.9523 25.6041 14.1172 25.2295 14.2246C25.5176 14.0383 25.8706 13.5582 26.2956 12.7986C26.2451 13.0494 26.0939 13.3862 25.849 13.8018C26.1731 13.5582 26.4396 13.1067 26.6485 12.4475C26.7061 12.6911 26.5981 13.0494 26.3316 13.5295C26.6557 13.1927 26.9006 12.7341 27.0591 12.1393C27.0879 12.4546 27.0231 12.7556 26.879 13.0351C27.0591 12.8774 27.2032 12.512 27.2968 11.953C27.3832 12.512 27.2824 13.0566 27.0015 13.5797Z" fill="#423A38"/>
<path fill-rule="evenodd" clip-rule="evenodd" d="M12.9554 13.5797C12.6241 13.1856 12.48 12.6481 12.516 11.953C12.1703 12.8989 12.5232 13.6872 13.5893 14.3106C13.3012 14.0813 13.1283 13.7875 13.0707 13.4364C13.2652 13.7732 13.5893 14.0885 14.0431 14.368C13.6541 14.0813 13.3372 13.6729 13.0851 13.1354C13.402 13.6657 13.7766 14.0455 14.216 14.2605C13.9783 14.0885 13.827 13.9093 13.7694 13.723C14.0287 13.9523 14.3528 14.1172 14.7274 14.2246C14.4393 14.0383 14.0863 13.5582 13.6613 12.7986C13.7118 13.0494 13.863 13.3862 14.1079 13.8018C13.7838 13.5582 13.5173 13.1067 13.3084 12.4475C13.2508 12.6911 13.3588 13.0494 13.6253 13.5295C13.3012 13.1927 13.0563 12.7341 12.8978 12.1393C12.869 12.4546 12.9338 12.7556 13.0779 13.0351C12.8978 12.8774 12.7537 12.512 12.6601 11.953C12.5737 12.512 12.6745 13.0566 12.9554 13.5797Z" fill="#423A38"/>
<path fill-rule="evenodd" clip-rule="evenodd" d="M17.7021 2.33626C20.4105 0.680916 22.3554 1.01772 23.5439 3.35383C22.0601 1.2542 20.1152 0.917394 17.7021 2.33626Z" fill="#352E2C"/>
<path fill-rule="evenodd" clip-rule="evenodd" d="M14.9145 22.1646C12.4439 21.0897 13.5099 19.5633 14.2302 17.8936C14.6336 16.962 14.6912 15.9516 14.4031 14.8481C14.9289 16.0233 14.8641 17.2129 14.2086 18.4167C13.3298 20.0219 13.0705 20.9822 14.9145 22.1646Z" fill="#332B29"/>
<path fill-rule="evenodd" clip-rule="evenodd" d="M13.373 23.9131C15.8437 22.8382 14.7777 21.3118 14.0573 19.6421C13.654 18.7106 13.5963 17.7002 13.8845 16.5966C13.3586 17.7718 13.4235 18.9614 14.079 20.1653C14.9577 21.7704 15.2171 22.7378 13.373 23.9131Z" fill="#332B29"/>
<path fill-rule="evenodd" clip-rule="evenodd" d="M25.1863 22.1215C27.657 21.0466 26.5909 19.5203 25.8706 17.8506C25.4672 16.919 25.4096 15.9086 25.6977 14.8051C25.1719 15.9803 25.2367 17.1698 25.8922 18.3737C26.7638 19.9789 27.0303 20.9392 25.1863 22.1215Z" fill="#332B29"/>
<path fill-rule="evenodd" clip-rule="evenodd" d="M26.7205 23.9131C24.2498 22.8382 25.3158 21.3118 26.0361 19.6421C26.4395 18.7106 26.4972 17.7002 26.209 16.5966C26.7349 17.7718 26.67 18.9614 26.0145 20.1653C25.143 21.7704 24.8836 22.7378 26.7205 23.9131Z" fill="#332B29"/>
</g>
</g>
<defs>
<linearGradient id="paint0_linear" x1="22.3545" y1="17.7824" x2="22.3545" y2="16.5001" gradientUnits="userSpaceOnUse">
<stop stop-color="#471F4B"/>
<stop offset="1" stop-color="#310A39"/>
</linearGradient>
<linearGradient id="paint1_linear" x1="17.7913" y1="17.7824" x2="17.7913" y2="16.5001" gradientUnits="userSpaceOnUse">
<stop stop-color="#471F4B"/>
<stop offset="1" stop-color="#310A39"/>
</linearGradient>
<clipPath id="clip0">
<rect width="8.62319" height="1.52174" fill="white" transform="translate(16.3044 16.3044)"/>
</clipPath>
<clipPath id="clip1">
<rect width="4.2603" height="3.62499" fill="white" transform="translate(17.728 21.5617) rotate(-8.02511)"/>
</clipPath>
<clipPath id="clip2">
<rect width="16.2431" height="22.6087" fill="white" transform="translate(11.5217 1.52174)"/>
</clipPath>
</defs>
</svg>
