<svg width="50" height="50" viewBox="0 0 50 50" fill="none" xmlns="http://www.w3.org/2000/svg">
<circle cx="25" cy="25" r="25" fill="#A7ADB0"/>
<path fill-rule="evenodd" clip-rule="evenodd" d="M25 14C22.7908 14 21 15.7909 21 18V25C21 27.2091 22.7908 29 25 29C27.2091 29 29 27.2091 29 25V18C29 15.7909 27.2091 14 25 14ZM19.4 24C19.4 23.5029 18.997 23.1 18.5 23.1C18.0029 23.1 17.6 23.5029 17.6 24V25C17.6 28.4979 20.0269 31.4289 23.2888 32.2012C23.7465 32.3095 24.1 32.6996 24.1 33.1699V33.1699C24.1 33.6836 23.6836 34.1 23.1699 34.1H21C20.5029 34.1 20.1 34.5029 20.1 35C20.1 35.4971 20.5029 35.9 21 35.9H25H29C29.497 35.9 29.9 35.4971 29.9 35C29.9 34.5029 29.497 34.1 29 34.1H26.83C26.3164 34.1 25.9 33.6836 25.9 33.1699V33.1699C25.9 32.6996 26.2535 32.3095 26.7112 32.2012C29.973 31.4289 32.4 28.4979 32.4 25V24C32.4 23.5029 31.997 23.1 31.5 23.1C31.0029 23.1 30.6 23.5029 30.6 24V25C30.6 28.0928 28.0928 30.6 25 30.6C21.9072 30.6 19.4 28.0928 19.4 25V24Z" fill="white"/>
</svg>
