<svg width="50" height="50" viewBox="0 0 50 50" fill="none" xmlns="http://www.w3.org/2000/svg">
<g clip-path="url(#clip0_826_23)">
<path d="M25 50C38.8071 50 50 38.8071 50 25C50 11.1929 38.8071 0 25 0C11.1929 0 0 11.1929 0 25C0 38.8071 11.1929 50 25 50Z" fill="#F36B25"/>
<path fill-rule="evenodd" clip-rule="evenodd" d="M25.0001 14C22.791 14 21.0001 15.7909 21.0001 18V25C21.0001 27.2091 22.791 29 25.0001 29C27.2092 29 29.0001 27.2091 29.0001 25V18C29.0001 15.7909 27.2092 14 25.0001 14ZM19.4001 24C19.4001 23.5029 18.9972 23.1 18.5001 23.1C18.003 23.1 17.6001 23.5029 17.6001 24V25C17.6001 28.4979 20.027 31.4289 23.2889 32.2012C23.7466 32.3095 24.1001 32.6996 24.1001 33.1699C24.1001 33.6836 23.6837 34.1 23.17 34.1H21.0001C20.503 34.1 20.1001 34.5029 20.1001 35C20.1001 35.4971 20.503 35.9 21.0001 35.9H25.0001H29.0001C29.4972 35.9 29.9001 35.4971 29.9001 35C29.9001 34.5029 29.4972 34.1 29.0001 34.1H26.8302C26.3165 34.1 25.9001 33.6836 25.9001 33.1699C25.9001 32.6996 26.2536 32.3095 26.7113 32.2012C29.9732 31.4289 32.4001 28.4979 32.4001 25V24C32.4001 23.5029 31.9972 23.1 31.5001 23.1C31.003 23.1 30.6001 23.5029 30.6001 24V25C30.6001 28.0928 28.0929 30.6 25.0001 30.6C21.9073 30.6 19.4001 28.0928 19.4001 25V24Z" fill="white"/>
</g>
<defs>
<clipPath id="clip0_826_23">
<rect width="50" height="50" fill="white"/>
</clipPath>
</defs>
</svg>
