<svg width="250" height="158" viewBox="0 0 250 158" fill="none" xmlns="http://www.w3.org/2000/svg">
<g clip-path="url(#clip0_2217_11842)">
<g opacity="0.2">
<path d="M210.749 136.548C209.027 137.584 207.271 138.587 205.48 139.557C205.203 139.708 204.925 139.858 204.647 140.012C203.301 140.733 201.935 141.433 200.547 142.114C200.558 142.005 200.571 141.896 200.588 141.787C200.747 140.657 201.1 139.562 201.631 138.552C201.881 138.069 202.178 137.612 202.519 137.187C203.875 135.497 205.756 134.553 207.678 134.829C208.876 135.012 209.967 135.623 210.749 136.548Z" fill="#3F3D56"/>
<path d="M213.906 133.962C213.872 134.205 213.828 134.444 213.776 134.68C212.781 135.319 211.772 135.941 210.749 136.548C209.027 137.583 207.271 138.587 205.481 139.557C205.203 139.707 204.925 139.857 204.647 140.012C204.313 139.767 204.007 139.486 203.736 139.173C203.226 138.585 202.818 137.917 202.526 137.196C201.918 135.622 201.723 133.919 201.963 132.249C202.202 130.579 202.867 128.998 203.893 127.659C205.26 125.968 207.13 125.025 209.052 125.3C210.974 125.575 212.514 127.01 213.339 129.012C213.965 130.582 214.161 132.291 213.906 133.962Z" fill="#3F3D56"/>
<path d="M215.286 124.432C215.906 120.122 213.736 116.245 210.439 115.771C207.142 115.298 203.966 118.408 203.346 122.718C202.726 127.028 204.896 130.905 208.193 131.378C211.49 131.852 214.666 128.742 215.286 124.432Z" fill="#3F3D56"/>
<path d="M249.703 44.7304C249.117 48.8527 247.64 52.7985 245.376 56.2946L228.43 53.7333L243.745 58.5578C242.915 59.6037 242.015 60.5916 241.05 61.5148C244.29 67.1166 245.55 73.643 244.629 80.046C243.708 86.449 240.659 92.3571 235.971 96.8215C238.711 101.543 240.047 106.946 239.823 112.398C232.618 120.771 223.829 128.282 213.782 134.69C212.782 135.322 211.771 135.941 210.748 136.548C209.026 137.584 207.27 138.587 205.479 139.557C204.889 139.443 204.309 139.314 203.735 139.164C203.022 138.984 202.322 138.775 201.637 138.543C196.939 136.942 192.734 134.159 189.426 130.463C186.119 126.768 183.821 122.283 182.754 117.442C181.687 112.601 181.886 107.567 183.334 102.826C184.782 98.0847 187.428 93.7958 191.018 90.373C190.727 89.8711 190.451 89.3608 190.191 88.8422C190.114 88.692 190.041 88.5419 189.964 88.3872C187.859 84.0045 186.903 79.1599 187.185 74.3073L187.219 73.8046C187.239 73.5339 187.264 73.261 187.292 72.9903C187.333 72.6082 187.381 72.2238 187.435 71.8393V71.803C187.881 68.7005 188.834 65.6921 190.255 62.8978L210.916 73.2883L192.077 59.8043C193.239 58.0851 194.583 56.4958 196.086 55.064C194.122 51.6351 192.884 47.8399 192.448 43.9135C192.013 39.9872 192.39 36.0134 193.555 32.2384C194.721 28.4634 196.65 24.9677 199.224 21.968C201.798 18.9682 204.961 16.5282 208.518 14.7993C212.075 13.0704 215.949 12.0894 219.901 11.9171C223.853 11.7448 227.798 12.3848 231.492 13.7976C235.186 15.2103 238.551 17.3657 241.376 20.13C244.202 22.8944 246.429 26.2088 247.92 29.868L224.717 42.2624L249.171 33.7394C250.055 37.3347 250.236 41.0666 249.703 44.7304Z" fill="#3F5189"/>
<path opacity="0.1" d="M239.816 112.389C232.611 120.762 223.822 128.273 213.775 134.681C212.78 135.319 211.771 135.941 210.748 136.548C209.026 137.584 207.27 138.587 205.479 139.557C204.889 139.444 204.309 139.314 203.735 139.164C203.022 138.984 202.322 138.775 201.637 138.543C196.939 136.942 192.734 134.16 189.426 130.464C186.119 126.768 183.821 122.283 182.754 117.442C181.687 112.601 181.886 107.567 183.334 102.826C184.782 98.0848 187.428 93.796 191.018 90.3731C190.727 89.8712 190.451 89.3609 190.191 88.8423C190.114 88.6922 190.041 88.5421 189.964 88.3874C187.859 84.0047 186.903 79.16 187.185 74.3075L187.219 73.8048C187.239 73.5341 187.264 73.2611 187.292 72.9905C187.333 72.6083 187.381 72.2239 187.435 71.8395V71.8031C187.613 71.189 189.964 71.7053 193.544 72.9404L194.3 73.2088C195.093 73.4932 195.938 73.8071 196.826 74.1505C198.765 74.8966 200.906 75.7769 203.165 76.7504L203.313 76.8141L203.628 76.9506C218.82 83.5288 238.805 94.0831 235.939 96.8081C238.689 101.528 240.034 106.933 239.816 112.389Z" fill="black"/>
</g>
<g opacity="0.2">
<path d="M72.6388 149.313C71.6821 148.982 70.7323 148.643 69.7893 148.294C67.5936 147.487 65.4321 146.634 63.3047 145.735C63.736 145.386 64.2256 145.115 64.751 144.934C66.6484 144.284 68.7325 144.905 70.4294 146.402C71.3453 147.222 72.0952 148.211 72.6388 149.313Z" fill="#3F3D56"/>
<path d="M70.4317 146.401C70.3026 147.058 70.0874 147.694 69.7916 148.294C67.5959 147.487 65.4344 146.634 63.307 145.735C61.4559 144.957 59.6338 144.145 57.8404 143.299C57.7621 142.756 57.727 142.207 57.7357 141.659C57.7433 141.087 57.8043 140.518 57.9179 139.957C58.3734 137.721 59.6626 135.94 61.5622 135.29C63.4618 134.639 65.5437 135.26 67.2406 136.759C67.6515 137.123 68.0281 137.523 68.3658 137.956C69.1137 138.918 69.6901 140.001 70.0695 141.158C70.6446 142.845 70.7694 144.652 70.4317 146.401Z" fill="#3F3D56"/>
<path d="M63.4786 141.464C66.7556 140.43 68.2887 136.042 66.9031 131.664C65.5175 127.286 61.7377 124.575 58.4608 125.61C55.1838 126.644 53.6506 131.032 55.0363 135.41C56.4219 139.788 60.2017 142.498 63.4786 141.464Z" fill="#3F3D56"/>
<path d="M59.8168 131.367C63.0817 130.337 64.6102 125.967 63.2309 121.605C61.8515 117.243 58.0866 114.541 54.8217 115.571C51.5569 116.6 50.0283 120.971 51.4077 125.333C52.787 129.695 56.5519 132.397 59.8168 131.367Z" fill="#3F3D56"/>
<path d="M68.3528 137.956C67.7196 138.326 67.0697 138.672 66.4031 138.995C65.3286 139.517 64.2234 139.973 63.0936 140.36C62.0626 140.715 61.0125 141.012 59.948 141.249C59.2085 141.416 58.4683 141.552 57.7273 141.657C56.8071 141.789 55.8891 141.875 54.9735 141.916C43.9676 136.457 34.0868 129.779 25.6547 122.152C25.534 121.829 25.4269 121.503 25.3108 121.174C23.1492 114.701 23.186 107.697 25.4156 101.248C19.7771 97.4672 15.5663 91.9122 13.453 85.4666C12.4016 82.3123 11.8633 79.0101 11.8586 75.6857H35.7131L12.0909 71.9144C12.3533 69.7456 12.845 67.6107 13.5578 65.5454C7.91897 61.766 3.70805 56.2117 1.59518 49.7664C-3.70279 33.819 4.62683 16.5568 20.1996 11.2024C30.6247 7.62211 41.6511 10.2925 49.3931 17.2301L33.8704 39.9218L52.3518 20.2872C54.8525 23.2687 56.7632 26.6975 57.9824 30.3911C59.3725 34.5631 59.86 38.9823 59.4128 43.3565L42.6419 48.9748L58.9732 46.2612C58.7011 47.6372 58.335 48.993 57.8776 50.3191C63.5159 54.0991 67.7267 59.6532 69.8402 66.0982C70.8639 69.1684 71.4019 72.3794 71.4346 75.6152V75.6402C71.4346 75.8904 71.4346 76.1406 71.4346 76.3908C71.4346 76.4978 71.4346 76.6024 71.4346 76.7093C71.355 79.8861 70.7857 83.0316 69.7468 86.0353C72.0383 87.5684 74.1077 89.4092 75.8966 91.5057C75.9422 91.5558 75.9854 91.6058 76.0264 91.6581C78.549 94.6512 80.4749 98.0985 81.7002 101.814C86.3627 115.849 80.4612 130.907 68.3528 137.956Z" fill="#3F5189"/>
<path opacity="0.1" d="M68.3518 137.956C67.7186 138.326 67.0687 138.672 66.4021 138.995C65.3276 139.517 64.2223 139.972 63.0925 140.36C62.0616 140.715 61.0114 141.012 59.947 141.249C59.2075 141.416 58.4672 141.552 57.7262 141.657C56.806 141.788 55.8881 141.875 54.9725 141.916C43.9665 136.457 34.0858 129.778 25.6537 122.152C25.533 121.829 25.4259 121.503 25.3097 121.174C23.1482 114.701 23.185 107.697 25.4145 101.248C19.7761 97.467 15.5653 91.9121 13.4519 85.4665C12.6342 83.0053 46.734 81.0196 62.2657 82.9234L62.6279 82.9689C67.3428 83.5763 70.2377 84.5612 69.7344 86.0192C72.0259 87.5523 74.0952 89.3931 75.8842 91.4897C75.9297 91.5397 75.973 91.5897 76.014 91.6421C78.5366 94.6351 80.4625 98.0825 81.6878 101.798C86.3617 115.849 80.4601 130.907 68.3518 137.956Z" fill="black"/>
</g>
<path opacity="0.1" d="M87.0563 52.6941C87.1802 52.518 87.2484 52.3088 87.2522 52.0936C87.2522 50.7857 84.585 49.728 81.296 49.728C78.0069 49.728 75.3443 50.7948 75.3443 52.0936C75.3489 52.3415 75.4344 52.5812 75.588 52.776C71.9277 53.1832 69.4609 53.9497 69.4609 54.8232C69.4609 56.1288 74.9275 57.1865 81.6581 57.1865C88.3888 57.1865 93.8553 56.1288 93.8553 54.8232C93.853 53.886 91.0833 53.0808 87.0563 52.6941Z" fill="#3F5189"/>
<path opacity="0.1" d="M181.564 4.71075C181.761 4.42948 181.87 4.09617 181.877 3.75313C181.877 1.68095 177.645 0 172.424 0C167.203 0 162.971 1.68095 162.971 3.75313C162.981 4.14171 163.118 4.51646 163.361 4.81993C157.548 5.4682 153.633 6.68285 153.633 8.07492C153.633 10.1471 162.288 11.8281 172.993 11.8281C183.699 11.8281 192.354 10.1471 192.354 8.07492C192.354 6.59869 187.956 5.32262 181.564 4.71075Z" fill="#3F5189"/>
<path opacity="0.1" d="M105.717 4.71075C105.914 4.42948 106.022 4.09617 106.029 3.75313C106.029 1.68095 101.797 0 96.5763 0C91.3558 0 87.1238 1.68095 87.1238 3.75313C87.1333 4.14171 87.2701 4.51646 87.5133 4.81993C81.7006 5.4682 77.7852 6.68285 77.7852 8.07492C77.7852 10.1471 86.4519 11.8281 97.1458 11.8281C107.84 11.8281 116.506 10.1471 116.506 8.07492C116.506 6.59869 112.108 5.32262 105.717 4.71075Z" fill="#3F5189"/>
<path opacity="0.1" d="M81.75 24.3045C82.283 23.9974 82.9982 24.2908 83.3626 24.7844C83.7271 25.278 83.8318 25.9217 83.9229 26.52C84.1257 27.8643 84.2714 29.4087 83.3649 30.4232C84.8477 25.9263 89.1184 22.4802 93.8424 21.9775" stroke="#6C63FF" stroke-width="3" stroke-miterlimit="10"/>
<path opacity="0.1" d="M141.309 2.00841C141.65 1.81052 142.113 2.00841 142.347 2.31548C142.556 2.6531 142.679 3.0365 142.705 3.43232C142.835 4.29668 142.933 5.28842 142.347 5.93441C142.847 4.49079 143.744 3.21646 144.934 2.25654C146.123 1.29662 147.559 0.689697 149.078 0.504883" stroke="#6C63FF" stroke-width="3" stroke-miterlimit="10"/>
<path opacity="0.1" d="M180.484 44.089C180.826 43.8911 181.288 44.089 181.523 44.396C181.732 44.7337 181.854 45.1171 181.881 45.5129C182.01 46.3772 182.108 47.369 181.523 48.015C182.023 46.5714 182.919 45.297 184.109 44.3371C185.299 43.3772 186.735 42.7703 188.254 42.5854" stroke="#6C63FF" stroke-width="3" stroke-miterlimit="10"/>
<path d="M124.632 14.7829C123.657 15.5972 122.97 16.6413 121.899 17.376C120.61 18.2631 118.917 18.5997 117.344 19.0751C115.77 19.5505 114.155 20.2966 113.522 21.5909C112.984 22.6986 113.294 23.9838 112.838 25.1165C112.349 26.3198 111.078 27.1637 110.105 28.135C108.183 30.0502 107.328 32.6842 107.827 35.1408C108.171 36.84 109.112 38.4095 109.67 40.0677C110.353 42.0966 110.449 44.2234 110.545 46.3274C110.722 50.2784 110.898 54.2681 110.007 58.1555C109.779 59.1313 109.164 73.9687 107.973 73.9391C111.135 73.6684 114.314 73.6389 117.492 73.607L165.096 73.1521C162.902 70.2861 161.502 53.3492 161.037 49.9714C160.235 44.1483 162.176 38.3185 162.404 32.4568C162.436 31.7016 162.436 30.9259 162.124 30.2163C161.796 29.4725 161.14 28.8378 160.921 28.0667C160.607 26.9635 161.237 25.8331 161.258 24.7003C161.299 22.4257 158.98 20.681 157.142 18.9955C155.37 17.3737 153.896 15.5313 152.067 13.9504C150.238 12.3695 147.94 11.0298 145.325 10.7864C143.177 10.5885 141.043 11.1458 138.986 11.6963C136.533 12.3514 134.203 13.1793 131.6 13.1384C128.728 13.0883 126.958 13.3272 124.632 14.7829Z" fill="#2F2E41"/>
<g opacity="0.1">
<path d="M157.422 23.7426C157.488 23.9915 157.584 24.2313 157.709 24.4569C157.678 23.945 157.554 23.4432 157.342 22.9761C157.332 23.2341 157.359 23.4922 157.422 23.7426Z" fill="black"/>
<path d="M111.256 60.2661L110.992 60.2889C111.081 60.2907 111.169 60.2831 111.256 60.2661Z" fill="black"/>
</g>
<path d="M160.687 142.235C160.397 142.459 160.05 142.6 159.685 142.642C153.861 143.836 147.984 144.855 142.046 145.178C136.808 145.465 131.553 145.208 126.312 144.951C121.071 144.694 115.835 144.434 110.719 143.377C112.838 139.114 114.173 134.506 114.659 129.772C114.874 127.694 114.927 125.603 114.816 123.517C114.799 123.266 114.769 123.016 114.725 122.768C114.482 121.272 113.88 119.104 114.427 118.021C115.128 116.629 117.823 116.584 119.139 116.324C121.376 115.885 123.624 115.519 125.882 115.212C134.84 113.995 143.889 113.718 152.916 113.447C154.127 113.411 155.572 113.493 156.202 114.527C156.556 115.108 156.537 115.831 156.519 116.511C156.478 117.983 156.493 119.456 156.562 120.928C156.879 127.457 158.278 133.889 160.703 139.96C161.004 140.704 161.28 141.677 160.687 142.235Z" fill="#FBBEBE"/>
<path d="M125.246 61.2329C124.294 62.4043 122.952 63.1913 121.602 63.8828C119.988 64.7152 118.326 65.4505 116.625 66.0846C116.281 66.6055 116.554 67.297 116.853 67.852C119.524 73.0336 123.101 78.1834 128.494 80.4102C131.262 81.5475 134.298 81.8319 137.282 82.098C138.211 82.1799 139.158 82.2618 140.065 82.0388C140.971 81.8159 141.814 81.2768 142.57 80.7059C147.512 76.9715 150.766 71.4299 151.618 65.2999C151.69 64.7562 151.69 64.0898 151.223 63.7986C150.939 63.6235 150.577 63.6576 150.242 63.6599C148.057 63.6826 146.121 62.0676 145.112 60.1365C144.103 58.2053 143.835 55.9785 143.586 53.8108C143.586 53.763 130.745 53.4923 129.585 53.4832C127.777 53.4673 127.18 53.6788 127.005 55.5304C126.82 57.573 126.592 59.5678 125.246 61.2329Z" fill="#FBBEBE"/>
<path opacity="0.1" d="M125.246 61.2329C124.294 62.4043 122.952 63.1913 121.602 63.8828C119.988 64.7152 118.326 65.4505 116.625 66.0846C116.281 66.6055 116.554 67.297 116.853 67.852C119.524 73.0336 123.101 78.1834 128.494 80.4102C131.262 81.5475 134.298 81.8319 137.282 82.098C138.211 82.1799 139.158 82.2618 140.065 82.0388C140.971 81.8159 141.814 81.2768 142.57 80.7059C147.512 76.9715 150.766 71.4299 151.618 65.2999C151.69 64.7562 151.69 64.0898 151.223 63.7986C150.939 63.6235 150.577 63.6576 150.242 63.6599C148.057 63.6826 146.121 62.0676 145.112 60.1365C144.103 58.2053 143.835 55.9785 143.586 53.8108C143.586 53.763 130.745 53.4923 129.585 53.4832C127.777 53.4673 127.18 53.6788 127.005 55.5304C126.82 57.573 126.592 59.5678 125.246 61.2329Z" fill="black"/>
<path d="M135.452 58.8105C145.139 58.8105 152.991 50.9689 152.991 41.2959C152.991 31.6228 145.139 23.7812 135.452 23.7812C125.766 23.7812 117.914 31.6228 117.914 41.2959C117.914 50.9689 125.766 58.8105 135.452 58.8105Z" fill="#FBBEBE"/>
<path d="M148.316 62.0609C148.51 64.5175 122.072 66.8172 121.074 63.7874C120.482 64.4857 119.396 64.5426 118.53 64.2423C117.665 63.9421 116.936 63.3643 116.116 62.9389C114.749 62.227 113.209 61.9631 111.695 61.7061C109.228 61.2898 106.363 60.985 104.536 62.6933C103.905 63.2824 103.475 64.0581 102.841 64.6495C101.734 65.6776 100.17 65.9983 98.7414 66.4692C96.6801 67.1516 94.7805 68.2434 92.833 69.1987C88.2858 71.4346 83.4376 72.9992 78.4401 73.8435C77.3764 74.0232 76.3059 74.1688 75.2513 74.4213C73.7708 74.7761 72.2903 75.3834 71.2812 76.523C72.4611 78.0288 74.1557 78.8499 75.9756 79.4436L93.5368 85.1757C96.179 86.0378 98.8621 86.918 101.174 88.4625C105.026 91.0283 107.531 95.2454 108.902 99.6605C110.273 104.076 110.627 108.734 110.968 113.345C111.116 115.349 111.756 137.644 110.968 139.5C115.059 139.981 119.428 145.116 123.5 144.5C127.42 143.904 131.034 146.464 135 146.5C139.328 146.543 148.734 143.743 153 144.5C157.266 145.257 157.142 140.418 160.736 138C159.971 136.97 158.998 115.49 158.969 114.211L158.878 108.154C158.837 107.423 158.886 106.69 159.023 105.97C159.329 104.674 160.187 103.586 160.736 102.374C161.795 100.034 161.647 97.3586 161.707 94.7905C161.766 92.2225 162.126 89.4633 163.864 87.5845C165.003 86.3585 166.597 85.6624 168.214 85.2325C170.979 84.4956 173.872 84.4478 176.728 84.2454C186.04 83.5786 195.15 81.2093 203.605 77.2554C203.1 76.1886 201.924 75.5836 200.851 75.0877C198.314 73.9163 195.626 72.7153 192.843 72.9769C191.497 73.1042 190.164 73.5728 188.823 73.4022C187.552 73.2385 186.427 72.5197 185.192 72.1762C184.256 71.9169 183.277 71.8782 182.315 71.7326C180.097 71.3937 178.015 70.4816 175.963 69.5786L170.779 67.3039C169.412 66.7012 167.989 66.0575 167.05 64.8929C166.745 64.513 166.499 64.0854 166.166 63.7282C165.595 63.1164 164.8 62.7547 164.005 62.5022C163.006 62.1551 161.942 62.0385 160.891 62.161C160.171 62.3039 159.46 62.49 158.762 62.7183C155.336 63.6418 151.801 62.6819 148.316 62.0609Z" fill="#3F5189"/>
<path d="M168.375 153.671C159.039 155.913 149.53 157.358 139.949 157.993H139.933H115.878H115.865C111.56 157.7 107.317 157.253 103.137 156.651C104.37 152.984 106.07 149.49 108.196 146.256C108.536 145.798 108.801 145.29 108.984 144.75C109.084 144.248 109.135 143.736 109.136 143.224C109.247 141.654 109.857 140.161 110.876 138.961C111.35 139.219 111.828 139.467 112.311 139.705C117.782 142.419 123.74 144.016 129.836 144.402C133.043 144.566 136.257 144.502 139.455 144.209C146.666 143.629 154.164 142.291 159.973 138.045C160.216 137.867 160.458 137.683 160.697 137.494C163.519 139.996 165.152 143.831 166.321 147.416C167.015 149.513 167.658 151.606 168.375 153.671Z" fill="#2F2E41"/>
<path opacity="0.1" d="M135.358 139.2C135.245 139.567 135.217 139.956 135.277 140.336C135.337 140.715 135.483 141.076 135.705 141.391C135.852 141.062 135.896 140.696 135.83 140.341C135.764 139.987 135.592 139.661 135.336 139.407L135.358 139.2Z" fill="black"/>
<path d="M125.391 65.6707C126.275 65.1885 127.229 64.7609 128.236 64.7472C129.749 64.7336 131.102 65.6571 132.222 66.6761C133.258 67.6106 134.195 68.6487 135.019 69.7741C135.429 70.3314 135.821 70.9433 135.882 71.6325C135.944 72.3217 135.566 73.0974 134.892 73.2611C134.466 73.3329 134.028 73.2445 133.664 73.0132C132.106 72.1579 130.951 70.1995 129.184 70.3906C127.972 70.5202 127.152 71.6462 126.489 72.6652C125.899 73.575 125.303 74.5099 125.038 75.5608C124.774 76.6117 124.902 77.8354 125.635 78.627C126.204 79.248 127.036 79.5368 127.813 79.8598C129.531 80.5699 131.103 81.5892 132.452 82.8669C133.106 83.4901 133.728 84.2317 133.819 85.1415C133.91 86.0514 133.22 87.0522 132.318 86.9885C131.911 86.9249 131.528 86.7581 131.204 86.504C129.573 85.4281 127.908 84.2999 125.995 83.9041C124.047 83.5015 122.036 83.9041 120.073 84.2044C117.92 84.5258 115.756 84.7548 113.581 84.8913C112.936 84.9652 112.283 84.9229 111.652 84.7662C109.502 84.102 108.876 81.3702 109.126 79.3958C109.393 77.285 110.948 76.805 112.575 75.7564C117.148 72.7675 120.542 68.3093 125.391 65.6707Z" fill="#FBBEBE"/>
<path d="M142.242 65.6707C141.355 65.1885 140.403 64.7609 139.394 64.7472C137.882 64.7336 136.529 65.6571 135.408 66.6761C134.373 67.6107 133.437 68.6488 132.614 69.7741C132.206 70.3314 131.814 70.9433 131.753 71.6325C131.691 72.3217 132.067 73.0974 132.741 73.2611C133.168 73.3328 133.606 73.2445 133.971 73.0132C135.529 72.1579 136.684 70.1995 138.449 70.3906C139.663 70.5202 140.483 71.6462 141.144 72.6652C141.734 73.575 142.333 74.5099 142.595 75.5608C142.856 76.6117 142.731 77.8354 141.998 78.627C141.431 79.248 140.597 79.5368 139.82 79.8598C138.102 80.5702 136.528 81.5894 135.178 82.8669C134.525 83.4901 133.905 84.2317 133.812 85.1415C133.718 86.0514 134.411 87.0522 135.313 86.9885C135.72 86.9253 136.103 86.7585 136.426 86.504C138.057 85.4281 139.722 84.2999 141.636 83.9041C143.583 83.5015 145.594 83.9041 147.558 84.2044C149.706 84.541 151.872 84.7753 154.042 84.9049C154.689 84.9788 155.343 84.9365 155.974 84.7798C158.122 84.1157 158.748 81.3838 158.5 79.4095C158.231 77.2986 156.678 76.8187 155.049 75.7701C150.485 72.7675 147.093 68.3093 142.242 65.6707Z" fill="#FBBEBE"/>
<path d="M123.328 34.9679C124.348 33.3575 125.56 31.6106 127.216 31.424C129.528 31.1625 131.334 34.049 133.634 34.422C136.595 34.9042 139.506 31.1192 142.29 32.5022C143.656 33.1846 144.677 35.0771 146.162 35.0407C147.189 35.018 148.025 34.0558 148.706 33.1118C149.855 31.5203 150.872 29.8375 151.747 28.0803C148.92 24.8436 144.809 24.1043 140.971 23.5152L134.518 22.5257C132.965 22.2869 131.384 22.0503 129.84 22.3801C128.443 22.6781 127.14 23.4287 125.876 24.218C124.368 25.1643 120.822 26.6837 119.897 28.4443C119.253 29.6658 120.139 30.2344 120.97 31.465C121.752 32.6326 122.538 33.8003 123.328 34.9679Z" fill="#2F2E41"/>
<path opacity="0.1" d="M113.552 74.501C110.753 75.0591 107.895 75.2624 105.045 75.106C103.927 75.0469 102.804 74.9309 101.69 75.0355C100.346 75.1629 99.0546 75.6064 97.745 75.9294C90.9596 77.5967 83.8691 75.9681 76.9426 75.0537C75.7194 74.8922 74.469 74.7535 73.2572 74.99C72.148 75.2061 71.123 75.7247 70.1413 76.282C68.5507 77.1853 67.0282 78.2033 65.5859 79.3277C64.0757 80.506 62.5519 82.0072 62.4472 83.9156C62.3561 85.5579 63.3583 87.0706 64.5723 88.1874C67.8522 91.2195 72.7219 92.1316 77.1134 91.3105C78.783 90.9988 80.4115 90.462 82.0993 90.2755C83.8281 90.0844 85.5751 90.2755 87.313 90.1936C90.8435 90.0367 94.2236 88.8106 97.6516 87.9577C103.005 86.6266 108.542 86.1931 114.037 86.6748C113.99 86.6954 113.938 86.7053 113.886 86.7036C113.834 86.702 113.783 86.6888 113.736 86.6651C113.69 86.6414 113.649 86.6077 113.618 86.5666C113.586 86.5254 113.563 86.4776 113.552 86.4268C113.149 85.3168 113.129 84.109 113.135 82.9285C113.154 80.0647 113.288 77.3534 113.552 74.501Z" fill="black"/>
<path d="M113.099 74.7285C110.3 75.2867 107.442 75.4899 104.592 75.3336C103.474 75.2744 102.351 75.1584 101.237 75.2631C99.893 75.3904 98.6015 75.834 97.2918 76.157C90.5065 77.8243 83.416 76.1956 76.4894 75.2812C75.2663 75.1197 74.0158 74.981 72.8041 75.2176C71.6948 75.4336 70.6699 75.9523 69.6882 76.5095C68.0976 77.4129 66.5751 78.4308 65.1327 79.5553C63.6226 80.7335 62.0988 82.2348 61.994 84.1432C61.9029 85.7855 62.9051 87.2981 64.1191 88.4149C67.3991 91.447 72.2688 92.3591 76.6603 91.538C78.3298 91.2264 79.9584 90.6896 81.6462 90.503C83.375 90.312 85.122 90.503 86.8599 90.4212C90.3903 90.2642 93.7705 89.0382 97.1984 88.1852C102.552 86.8541 108.089 86.4206 113.584 86.9023C113.537 86.923 113.485 86.9328 113.433 86.9312C113.381 86.9295 113.33 86.9163 113.283 86.8926C113.237 86.8689 113.196 86.8353 113.164 86.7941C113.133 86.7529 113.11 86.7052 113.099 86.6544C112.696 85.5444 112.676 84.3365 112.682 83.156C112.701 80.2922 112.835 77.5809 113.099 74.7285Z" fill="#3F5189"/>
<path opacity="0.1" d="M154.609 73.284C158.081 74.0733 166.435 74.4213 169.993 74.303C171.617 74.253 173.237 74.1074 174.861 74.112C177.644 74.112 180.423 74.5669 183.199 74.3827C186.787 74.137 190.31 72.82 193.889 73.1589C195.647 73.3272 197.339 73.8868 199.016 74.4463C200.692 75.0059 202.519 75.6383 203.699 76.9985C204.792 78.2586 205.191 79.9555 205.553 81.5841C205.756 82.494 205.958 83.4334 205.781 84.3455C205.441 86.0765 203.845 87.2479 202.312 88.1214C200.489 89.1586 198.49 90.0503 196.39 90.0025C195.144 89.9752 193.932 89.6158 192.745 89.2428C189.345 88.176 185.869 86.9682 182.316 87.2343C179.831 87.4254 177.348 88.3398 174.904 87.8462C173.467 87.555 172.171 86.7953 170.804 86.2903C167.474 85.0734 159.021 85.3964 155.491 85.733C155.696 83.7518 155.671 81.7547 155.876 79.7712C156.035 78.2541 156.188 76.6823 155.7 75.2356C155.395 74.369 155.293 73.8982 154.609 73.284Z" fill="black"/>
<path d="M154.836 73.7391C158.307 74.5284 166.662 74.8764 170.22 74.7581C171.844 74.7081 173.463 74.5625 175.087 74.5671C177.87 74.5671 180.649 75.022 183.426 74.8377C187.013 74.5921 190.537 73.2751 194.115 73.614C195.874 73.7823 197.566 74.3419 199.242 74.9014C200.919 75.461 202.745 76.0933 203.925 77.4536C205.019 78.7137 205.417 80.4106 205.779 82.0392C205.982 82.949 206.185 83.8885 206.007 84.8006C205.668 86.5316 204.071 87.703 202.538 88.5765C200.716 89.6137 198.716 90.5054 196.616 90.4576C195.37 90.4303 194.158 90.0709 192.972 89.6979C189.571 88.6311 186.095 87.4232 182.542 87.6894C180.057 87.8804 177.574 88.7948 175.13 88.3012C173.693 88.0101 172.397 87.2504 171.031 86.7454C167.7 85.5285 159.248 85.8515 155.717 86.1881C155.922 84.2069 155.897 82.2098 156.102 80.2263C156.262 78.7092 156.414 77.1374 155.927 75.6907C155.622 74.8241 155.519 74.3532 154.836 73.7391Z" fill="#3F5189"/>
<path d="M118.647 39.101C118.114 38.9623 117.909 38.289 117.429 38.0183C116.948 37.7476 116.347 37.9615 116 38.3641C115.679 38.7901 115.505 39.309 115.504 39.8426C115.461 40.9931 115.775 42.1288 116.403 43.0945C117.031 44.0602 117.942 44.8088 119.012 45.238C118.535 43.1674 118.351 41.0405 118.465 38.9191L118.647 39.101Z" fill="#FBBEBE"/>
<path d="M152.257 39.101C152.79 38.9623 152.993 38.289 153.474 38.0183C153.954 37.7476 154.556 37.9615 154.902 38.3641C155.224 38.7896 155.399 39.3088 155.398 39.8426C155.441 40.9931 155.127 42.1288 154.499 43.0945C153.871 44.0602 152.96 44.8088 151.891 45.238C152.367 43.1674 152.551 41.0405 152.437 38.9191L152.257 39.101Z" fill="#FBBEBE"/>
<g opacity="0.1">
<path d="M130.428 89.5405C130.862 91.1261 131.073 92.7645 131.054 94.4082C131.054 97.2674 130.492 99.7627 129.654 101.102C129.583 101.739 129.503 102.372 129.426 102.993C130.608 102.083 131.476 99.094 131.476 95.5455C131.467 93.1208 131.061 90.9576 130.428 89.5405Z" fill="black"/>
</g>
<g opacity="0.1">
<path d="M136.845 89.5405C136.409 91.126 136.198 92.7644 136.216 94.4082C136.216 97.2674 136.781 99.7627 137.619 101.102C137.69 101.739 137.767 102.372 137.847 102.993C136.665 102.083 135.797 99.094 135.797 95.5455C135.795 93.1208 136.2 90.9576 136.845 89.5405Z" fill="black"/>
</g>
<path opacity="0.1" d="M148.687 31.9745C148.004 32.9185 147.17 33.8806 146.143 33.9034C144.656 33.9398 143.638 32.0518 142.271 31.3649C139.499 29.9819 136.595 33.7669 133.616 33.2847C131.315 32.9116 129.516 30.0251 127.197 30.2867C125.541 30.4732 124.329 32.2201 123.309 33.8306C122.519 32.6645 121.731 31.4968 120.942 30.3277C120.487 29.6453 119.993 29.1562 119.772 28.6513C119.33 29.734 120.159 30.3072 120.942 31.465C121.726 32.6228 122.519 33.801 123.309 34.9679C124.329 33.3575 125.541 31.6105 127.197 31.424C129.509 31.1624 131.315 34.0489 133.616 34.422C136.577 34.9042 139.488 31.1192 142.271 32.5022C143.638 33.1846 144.658 35.0771 146.143 35.0407C147.17 35.0179 148.006 34.0558 148.687 33.1118C149.837 31.5202 150.854 29.8375 151.728 28.0803C151.605 27.9393 151.478 27.8028 151.348 27.6709C150.562 29.1654 149.673 30.6034 148.687 31.9745Z" fill="black"/>
</g>
<defs>
<clipPath id="clip0_2217_11842">
<rect width="250" height="158" fill="white"/>
</clipPath>
</defs>
</svg>
